<mxfile host="app.diagrams.net" modified="2024-03-08T21:18:14.437Z" agent="Mozilla/5.0 (Macintosh; Intel Mac OS X 10_15_7) AppleWebKit/537.36 (KHTML, like Gecko) Chrome/121.0.0.0 Safari/537.36" etag="Di3SN3E6IVUYwbvZt90D" version="24.0.2" type="github" pages="4">
  <diagram id="R2lEEEUBdFMjLlhIrx00" name="ER-diagram_V1">
    <mxGraphModel dx="2166" dy="1827" grid="1" gridSize="10" guides="1" tooltips="1" connect="1" arrows="1" fold="1" page="1" pageScale="1" pageWidth="850" pageHeight="1100" math="0" shadow="0" extFonts="Permanent Marker^https://fonts.googleapis.com/css?family=Permanent+Marker">
      <root>
        <mxCell id="0" />
        <mxCell id="1" parent="0" />
        <mxCell id="Ed32em5z93W1DroC9NEO-1" value="Airport" style="rounded=0;whiteSpace=wrap;html=1;" vertex="1" parent="1">
          <mxGeometry x="632.5" y="100" width="120" height="60" as="geometry" />
        </mxCell>
        <mxCell id="Ed32em5z93W1DroC9NEO-7" value="Tickets" style="rounded=0;whiteSpace=wrap;html=1;" vertex="1" parent="1">
          <mxGeometry x="563.6600000000001" y="375.39" width="120" height="60" as="geometry" />
        </mxCell>
        <mxCell id="Ed32em5z93W1DroC9NEO-8" value="Passengers" style="whiteSpace=wrap;html=1;" vertex="1" parent="1">
          <mxGeometry x="80" y="385.39" width="120" height="60" as="geometry" />
        </mxCell>
        <mxCell id="Ed32em5z93W1DroC9NEO-9" value="Flights" style="whiteSpace=wrap;html=1;" vertex="1" parent="1">
          <mxGeometry x="172.03000000000003" y="100" width="120" height="60" as="geometry" />
        </mxCell>
        <mxCell id="Ed32em5z93W1DroC9NEO-25" value="Airport name" style="ellipse;whiteSpace=wrap;html=1;align=center;" vertex="1" parent="1">
          <mxGeometry x="670" y="25" width="80" height="40" as="geometry" />
        </mxCell>
        <mxCell id="Ed32em5z93W1DroC9NEO-27" value="AID" style="ellipse;whiteSpace=wrap;html=1;align=center;fontStyle=4;" vertex="1" parent="1">
          <mxGeometry x="600" y="30" width="60" height="30" as="geometry" />
        </mxCell>
        <mxCell id="Ed32em5z93W1DroC9NEO-28" value="Country" style="ellipse;whiteSpace=wrap;html=1;align=center;" vertex="1" parent="1">
          <mxGeometry x="520" y="30" width="60" height="30" as="geometry" />
        </mxCell>
        <mxCell id="Ed32em5z93W1DroC9NEO-29" value="City" style="ellipse;whiteSpace=wrap;html=1;align=center;" vertex="1" parent="1">
          <mxGeometry x="765" y="35" width="60" height="20" as="geometry" />
        </mxCell>
        <mxCell id="Ed32em5z93W1DroC9NEO-35" value="" style="endArrow=none;html=1;rounded=0;entryX=0;entryY=0;entryDx=0;entryDy=0;exitX=1;exitY=1;exitDx=0;exitDy=0;" edge="1" parent="1" source="Ed32em5z93W1DroC9NEO-28" target="Ed32em5z93W1DroC9NEO-1">
          <mxGeometry relative="1" as="geometry">
            <mxPoint x="525" y="100" as="sourcePoint" />
            <mxPoint x="685" y="100" as="targetPoint" />
          </mxGeometry>
        </mxCell>
        <mxCell id="Ed32em5z93W1DroC9NEO-36" value="" style="endArrow=none;html=1;rounded=0;entryX=0.25;entryY=0;entryDx=0;entryDy=0;exitX=0.5;exitY=1;exitDx=0;exitDy=0;" edge="1" parent="1" source="Ed32em5z93W1DroC9NEO-27" target="Ed32em5z93W1DroC9NEO-1">
          <mxGeometry relative="1" as="geometry">
            <mxPoint x="571" y="65" as="sourcePoint" />
            <mxPoint x="630" y="84" as="targetPoint" />
          </mxGeometry>
        </mxCell>
        <mxCell id="Ed32em5z93W1DroC9NEO-37" value="" style="endArrow=none;html=1;rounded=0;entryX=0.5;entryY=0;entryDx=0;entryDy=0;exitX=0.5;exitY=1;exitDx=0;exitDy=0;" edge="1" parent="1" source="Ed32em5z93W1DroC9NEO-25" target="Ed32em5z93W1DroC9NEO-1">
          <mxGeometry relative="1" as="geometry">
            <mxPoint x="680" y="80" as="sourcePoint" />
            <mxPoint x="720" y="89" as="targetPoint" />
          </mxGeometry>
        </mxCell>
        <mxCell id="Ed32em5z93W1DroC9NEO-38" value="" style="endArrow=none;html=1;rounded=0;entryX=0.954;entryY=0.005;entryDx=0;entryDy=0;entryPerimeter=0;exitX=0.5;exitY=1;exitDx=0;exitDy=0;" edge="1" parent="1" source="Ed32em5z93W1DroC9NEO-29" target="Ed32em5z93W1DroC9NEO-1">
          <mxGeometry relative="1" as="geometry">
            <mxPoint x="770" y="60" as="sourcePoint" />
            <mxPoint x="930" y="60" as="targetPoint" />
          </mxGeometry>
        </mxCell>
        <mxCell id="Ed32em5z93W1DroC9NEO-40" value="status" style="ellipse;whiteSpace=wrap;html=1;align=center;" vertex="1" parent="1">
          <mxGeometry x="150" y="-5" width="60" height="40" as="geometry" />
        </mxCell>
        <mxCell id="Ed32em5z93W1DroC9NEO-42" value="Arrival time" style="ellipse;whiteSpace=wrap;html=1;align=center;" vertex="1" parent="1">
          <mxGeometry x="10" y="30" width="70" height="40" as="geometry" />
        </mxCell>
        <mxCell id="Ed32em5z93W1DroC9NEO-43" value="Flight date" style="ellipse;whiteSpace=wrap;html=1;align=center;" vertex="1" parent="1">
          <mxGeometry x="222.03" y="10" width="70" height="40" as="geometry" />
        </mxCell>
        <mxCell id="Ed32em5z93W1DroC9NEO-44" value="Departure time" style="ellipse;whiteSpace=wrap;html=1;align=center;" vertex="1" parent="1">
          <mxGeometry x="300" y="17.5" width="70" height="40" as="geometry" />
        </mxCell>
        <mxCell id="Ed32em5z93W1DroC9NEO-47" value="FID" style="ellipse;whiteSpace=wrap;html=1;align=center;fontStyle=4;" vertex="1" parent="1">
          <mxGeometry x="90.00000000000003" y="10" width="60" height="45" as="geometry" />
        </mxCell>
        <mxCell id="Ed32em5z93W1DroC9NEO-48" value="" style="endArrow=none;html=1;rounded=0;exitX=0.5;exitY=1;exitDx=0;exitDy=0;entryX=0;entryY=0;entryDx=0;entryDy=0;" edge="1" parent="1" source="Ed32em5z93W1DroC9NEO-47" target="Ed32em5z93W1DroC9NEO-9">
          <mxGeometry relative="1" as="geometry">
            <mxPoint x="-119.99999999999997" y="210" as="sourcePoint" />
            <mxPoint x="40.00000000000003" y="210" as="targetPoint" />
            <Array as="points" />
          </mxGeometry>
        </mxCell>
        <mxCell id="Ed32em5z93W1DroC9NEO-49" value="" style="endArrow=none;html=1;rounded=0;exitX=0.41;exitY=1.062;exitDx=0;exitDy=0;entryX=0.5;entryY=0;entryDx=0;entryDy=0;exitPerimeter=0;" edge="1" parent="1" source="Ed32em5z93W1DroC9NEO-43" target="Ed32em5z93W1DroC9NEO-9">
          <mxGeometry relative="1" as="geometry">
            <mxPoint x="150.00000000000003" y="70" as="sourcePoint" />
            <mxPoint x="170.00000000000003" y="90" as="targetPoint" />
            <Array as="points" />
          </mxGeometry>
        </mxCell>
        <mxCell id="Ed32em5z93W1DroC9NEO-50" value="" style="endArrow=none;html=1;rounded=0;exitX=0;exitY=1;exitDx=0;exitDy=0;entryX=1;entryY=0;entryDx=0;entryDy=0;" edge="1" parent="1" source="Ed32em5z93W1DroC9NEO-44" target="Ed32em5z93W1DroC9NEO-9">
          <mxGeometry relative="1" as="geometry">
            <mxPoint x="233.00000000000003" y="62" as="sourcePoint" />
            <mxPoint x="230.00000000000003" y="90" as="targetPoint" />
            <Array as="points" />
          </mxGeometry>
        </mxCell>
        <mxCell id="Ed32em5z93W1DroC9NEO-51" value="" style="endArrow=none;html=1;rounded=0;exitX=1;exitY=1;exitDx=0;exitDy=0;entryX=0;entryY=0.25;entryDx=0;entryDy=0;" edge="1" parent="1" source="Ed32em5z93W1DroC9NEO-42" target="Ed32em5z93W1DroC9NEO-9">
          <mxGeometry relative="1" as="geometry">
            <mxPoint x="243.00000000000003" y="72" as="sourcePoint" />
            <mxPoint x="240.00000000000003" y="100" as="targetPoint" />
            <Array as="points" />
          </mxGeometry>
        </mxCell>
        <mxCell id="Ed32em5z93W1DroC9NEO-54" value="" style="endArrow=none;html=1;rounded=0;entryX=0.5;entryY=1;entryDx=0;entryDy=0;exitX=0.25;exitY=0;exitDx=0;exitDy=0;" edge="1" parent="1" source="Ed32em5z93W1DroC9NEO-9" target="Ed32em5z93W1DroC9NEO-40">
          <mxGeometry relative="1" as="geometry">
            <mxPoint x="292" y="160" as="sourcePoint" />
            <mxPoint x="250.00000000000003" y="110" as="targetPoint" />
            <Array as="points" />
          </mxGeometry>
        </mxCell>
        <mxCell id="Ed32em5z93W1DroC9NEO-55" value="ArID" style="ellipse;whiteSpace=wrap;html=1;align=center;fontStyle=4;" vertex="1" parent="1">
          <mxGeometry x="-330" y="70" width="60" height="40" as="geometry" />
        </mxCell>
        <mxCell id="Ed32em5z93W1DroC9NEO-57" value="capacity" style="ellipse;whiteSpace=wrap;html=1;align=center;" vertex="1" parent="1">
          <mxGeometry x="-330" y="185" width="70" height="40" as="geometry" />
        </mxCell>
        <mxCell id="Ed32em5z93W1DroC9NEO-59" value="" style="endArrow=none;html=1;rounded=0;exitX=1;exitY=0;exitDx=0;exitDy=0;entryX=0;entryY=1;entryDx=0;entryDy=0;" edge="1" parent="1" source="Ed32em5z93W1DroC9NEO-57" target="a5-EkgxuctrAGVljtogm-1">
          <mxGeometry relative="1" as="geometry">
            <mxPoint x="-80" y="200" as="sourcePoint" />
            <mxPoint x="-195" y="185" as="targetPoint" />
          </mxGeometry>
        </mxCell>
        <mxCell id="Ed32em5z93W1DroC9NEO-62" value="" style="endArrow=none;html=1;rounded=0;exitX=1;exitY=1;exitDx=0;exitDy=0;entryX=0;entryY=0.25;entryDx=0;entryDy=0;" edge="1" parent="1" source="Ed32em5z93W1DroC9NEO-55" target="a5-EkgxuctrAGVljtogm-1">
          <mxGeometry relative="1" as="geometry">
            <mxPoint x="-300" y="140" as="sourcePoint" />
            <mxPoint x="-195" y="125" as="targetPoint" />
          </mxGeometry>
        </mxCell>
        <mxCell id="Ed32em5z93W1DroC9NEO-64" value="TID" style="ellipse;whiteSpace=wrap;html=1;align=center;fontStyle=4;" vertex="1" parent="1">
          <mxGeometry x="473.6600000000001" y="475.39" width="70" height="50" as="geometry" />
        </mxCell>
        <mxCell id="Ed32em5z93W1DroC9NEO-65" value="Status" style="ellipse;whiteSpace=wrap;html=1;align=center;" vertex="1" parent="1">
          <mxGeometry x="770" y="450.39" width="65" height="40" as="geometry" />
        </mxCell>
        <mxCell id="Ed32em5z93W1DroC9NEO-66" value="Price" style="ellipse;whiteSpace=wrap;html=1;align=center;" vertex="1" parent="1">
          <mxGeometry x="553.6600000000001" y="505.39" width="65" height="40" as="geometry" />
        </mxCell>
        <mxCell id="Ed32em5z93W1DroC9NEO-67" value="Seat number" style="ellipse;whiteSpace=wrap;html=1;align=center;" vertex="1" parent="1">
          <mxGeometry x="628.6600000000001" y="505.39" width="65" height="40" as="geometry" />
        </mxCell>
        <mxCell id="Ed32em5z93W1DroC9NEO-68" value="Fare class" style="ellipse;whiteSpace=wrap;html=1;align=center;" vertex="1" parent="1">
          <mxGeometry x="703.85" y="510.39" width="65" height="40" as="geometry" />
        </mxCell>
        <mxCell id="Ed32em5z93W1DroC9NEO-70" value="" style="endArrow=none;html=1;rounded=0;exitX=1;exitY=0.75;exitDx=0;exitDy=0;entryX=0;entryY=0;entryDx=0;entryDy=0;" edge="1" parent="1" source="Ed32em5z93W1DroC9NEO-7" target="Ed32em5z93W1DroC9NEO-65">
          <mxGeometry relative="1" as="geometry">
            <mxPoint x="633.6600000000001" y="375.39" as="sourcePoint" />
            <mxPoint x="793.6600000000001" y="375.39" as="targetPoint" />
          </mxGeometry>
        </mxCell>
        <mxCell id="Ed32em5z93W1DroC9NEO-71" value="" style="endArrow=none;html=1;rounded=0;exitX=0;exitY=1;exitDx=0;exitDy=0;entryX=0.721;entryY=0.07;entryDx=0;entryDy=0;entryPerimeter=0;" edge="1" parent="1" source="Ed32em5z93W1DroC9NEO-7" target="Ed32em5z93W1DroC9NEO-64">
          <mxGeometry relative="1" as="geometry">
            <mxPoint x="573.6600000000001" y="430.39" as="sourcePoint" />
            <mxPoint x="528.6600000000001" y="445.39" as="targetPoint" />
          </mxGeometry>
        </mxCell>
        <mxCell id="Ed32em5z93W1DroC9NEO-73" value="" style="endArrow=none;html=1;rounded=0;exitX=0.25;exitY=1;exitDx=0;exitDy=0;entryX=0.426;entryY=0.034;entryDx=0;entryDy=0;entryPerimeter=0;" edge="1" parent="1" source="Ed32em5z93W1DroC9NEO-7" target="Ed32em5z93W1DroC9NEO-66">
          <mxGeometry relative="1" as="geometry">
            <mxPoint x="573.6600000000001" y="445.39" as="sourcePoint" />
            <mxPoint x="534.6600000000001" y="484.39" as="targetPoint" />
            <Array as="points" />
          </mxGeometry>
        </mxCell>
        <mxCell id="Ed32em5z93W1DroC9NEO-74" value="" style="endArrow=none;html=1;rounded=0;exitX=0.75;exitY=1;exitDx=0;exitDy=0;entryX=0.5;entryY=0;entryDx=0;entryDy=0;" edge="1" parent="1" source="Ed32em5z93W1DroC9NEO-7" target="Ed32em5z93W1DroC9NEO-67">
          <mxGeometry relative="1" as="geometry">
            <mxPoint x="583.6600000000001" y="455.39" as="sourcePoint" />
            <mxPoint x="544.6600000000001" y="494.39" as="targetPoint" />
          </mxGeometry>
        </mxCell>
        <mxCell id="Ed32em5z93W1DroC9NEO-76" value="" style="endArrow=none;html=1;rounded=0;exitX=1;exitY=1;exitDx=0;exitDy=0;entryX=0;entryY=0;entryDx=0;entryDy=0;" edge="1" parent="1" source="Ed32em5z93W1DroC9NEO-7" target="Ed32em5z93W1DroC9NEO-68">
          <mxGeometry relative="1" as="geometry">
            <mxPoint x="593.6600000000001" y="465.39" as="sourcePoint" />
            <mxPoint x="715.8578617776345" y="511.1386636110211" as="targetPoint" />
          </mxGeometry>
        </mxCell>
        <mxCell id="Ed32em5z93W1DroC9NEO-77" value="Lname" style="ellipse;whiteSpace=wrap;html=1;align=center;" vertex="1" parent="1">
          <mxGeometry x="-140" y="365.39" width="60" height="50" as="geometry" />
        </mxCell>
        <mxCell id="Ed32em5z93W1DroC9NEO-78" value="PID" style="ellipse;whiteSpace=wrap;html=1;align=center;fontStyle=4;" vertex="1" parent="1">
          <mxGeometry x="-50.00000000000003" y="330.39" width="65" height="40" as="geometry" />
        </mxCell>
        <mxCell id="Ed32em5z93W1DroC9NEO-79" value="name" style="ellipse;whiteSpace=wrap;html=1;align=center;" vertex="1" parent="1">
          <mxGeometry x="-50" y="390.39" width="60" height="50" as="geometry" />
        </mxCell>
        <mxCell id="Ed32em5z93W1DroC9NEO-80" value="Fname" style="ellipse;whiteSpace=wrap;html=1;align=center;" vertex="1" parent="1">
          <mxGeometry x="-150" y="435.39" width="55" height="50" as="geometry" />
        </mxCell>
        <mxCell id="Ed32em5z93W1DroC9NEO-81" value="Gender" style="ellipse;whiteSpace=wrap;html=1;align=center;" vertex="1" parent="1">
          <mxGeometry x="200" y="485.39" width="55" height="40" as="geometry" />
        </mxCell>
        <mxCell id="Ed32em5z93W1DroC9NEO-82" value="Address" style="ellipse;whiteSpace=wrap;html=1;align=center;" vertex="1" parent="1">
          <mxGeometry x="-20" y="540.3900000000001" width="65" height="50" as="geometry" />
        </mxCell>
        <mxCell id="Ed32em5z93W1DroC9NEO-83" value="Age" style="ellipse;whiteSpace=wrap;html=1;align=center;" vertex="1" parent="1">
          <mxGeometry x="-65" y="490.39" width="60" height="40" as="geometry" />
        </mxCell>
        <mxCell id="Ed32em5z93W1DroC9NEO-84" value="Nationality" style="ellipse;whiteSpace=wrap;html=1;align=center;" vertex="1" parent="1">
          <mxGeometry x="45" y="590.3900000000001" width="70" height="40" as="geometry" />
        </mxCell>
        <mxCell id="Ed32em5z93W1DroC9NEO-85" value="Passport no." style="ellipse;whiteSpace=wrap;html=1;align=center;" vertex="1" parent="1">
          <mxGeometry x="105" y="480.39" width="70" height="50" as="geometry" />
        </mxCell>
        <mxCell id="Ed32em5z93W1DroC9NEO-86" value="Phone number" style="ellipse;shape=doubleEllipse;margin=3;whiteSpace=wrap;html=1;align=center;" vertex="1" parent="1">
          <mxGeometry x="162.03" y="570.3900000000001" width="80" height="50" as="geometry" />
        </mxCell>
        <mxCell id="Ed32em5z93W1DroC9NEO-87" value="" style="endArrow=none;html=1;rounded=0;exitX=0;exitY=0;exitDx=0;exitDy=0;entryX=1;entryY=1;entryDx=0;entryDy=0;" edge="1" parent="1" source="Ed32em5z93W1DroC9NEO-8" target="Ed32em5z93W1DroC9NEO-78">
          <mxGeometry relative="1" as="geometry">
            <mxPoint x="-57.5" y="420.39" as="sourcePoint" />
            <mxPoint x="212.5" y="370.39" as="targetPoint" />
          </mxGeometry>
        </mxCell>
        <mxCell id="Ed32em5z93W1DroC9NEO-88" value="" style="endArrow=none;html=1;rounded=0;exitX=0.5;exitY=0;exitDx=0;exitDy=0;entryX=0.25;entryY=1;entryDx=0;entryDy=0;" edge="1" parent="1" source="Ed32em5z93W1DroC9NEO-82" target="Ed32em5z93W1DroC9NEO-8">
          <mxGeometry relative="1" as="geometry">
            <mxPoint x="-57.5" y="400.39" as="sourcePoint" />
            <mxPoint x="57.5" y="440.39" as="targetPoint" />
          </mxGeometry>
        </mxCell>
        <mxCell id="Ed32em5z93W1DroC9NEO-90" value="" style="endArrow=none;html=1;rounded=0;entryX=0;entryY=1;entryDx=0;entryDy=0;exitX=0.5;exitY=0;exitDx=0;exitDy=0;" edge="1" parent="1" source="Ed32em5z93W1DroC9NEO-83" target="Ed32em5z93W1DroC9NEO-8">
          <mxGeometry relative="1" as="geometry">
            <mxPoint x="-57.5" y="400.39" as="sourcePoint" />
            <mxPoint x="102.5" y="400.39" as="targetPoint" />
          </mxGeometry>
        </mxCell>
        <mxCell id="Ed32em5z93W1DroC9NEO-91" value="" style="endArrow=none;html=1;rounded=0;entryX=0.25;entryY=1;entryDx=0;entryDy=0;exitX=0.5;exitY=0;exitDx=0;exitDy=0;" edge="1" parent="1" source="Ed32em5z93W1DroC9NEO-84" target="Ed32em5z93W1DroC9NEO-8">
          <mxGeometry relative="1" as="geometry">
            <mxPoint x="-57.5" y="400.39" as="sourcePoint" />
            <mxPoint x="102.5" y="400.39" as="targetPoint" />
          </mxGeometry>
        </mxCell>
        <mxCell id="Ed32em5z93W1DroC9NEO-92" value="" style="endArrow=none;html=1;rounded=0;entryX=0.5;entryY=1;entryDx=0;entryDy=0;exitX=0.5;exitY=0;exitDx=0;exitDy=0;" edge="1" parent="1" source="Ed32em5z93W1DroC9NEO-85" target="Ed32em5z93W1DroC9NEO-8">
          <mxGeometry relative="1" as="geometry">
            <mxPoint x="-57.5" y="400.39" as="sourcePoint" />
            <mxPoint x="102.5" y="400.39" as="targetPoint" />
          </mxGeometry>
        </mxCell>
        <mxCell id="Ed32em5z93W1DroC9NEO-93" value="" style="endArrow=none;html=1;rounded=0;entryX=0.75;entryY=1;entryDx=0;entryDy=0;exitX=0.5;exitY=0;exitDx=0;exitDy=0;" edge="1" parent="1" source="Ed32em5z93W1DroC9NEO-86" target="Ed32em5z93W1DroC9NEO-8">
          <mxGeometry relative="1" as="geometry">
            <mxPoint x="-57.5" y="400.39" as="sourcePoint" />
            <mxPoint x="102.5" y="400.39" as="targetPoint" />
          </mxGeometry>
        </mxCell>
        <mxCell id="Ed32em5z93W1DroC9NEO-94" value="" style="endArrow=none;html=1;rounded=0;entryX=1;entryY=1;entryDx=0;entryDy=0;exitX=0;exitY=0;exitDx=0;exitDy=0;" edge="1" parent="1" source="Ed32em5z93W1DroC9NEO-81" target="Ed32em5z93W1DroC9NEO-8">
          <mxGeometry relative="1" as="geometry">
            <mxPoint x="-57.5" y="400.39" as="sourcePoint" />
            <mxPoint x="102.5" y="400.39" as="targetPoint" />
          </mxGeometry>
        </mxCell>
        <mxCell id="Ed32em5z93W1DroC9NEO-95" value="" style="endArrow=none;html=1;rounded=0;entryX=0;entryY=0.5;entryDx=0;entryDy=0;exitX=1;exitY=0.5;exitDx=0;exitDy=0;" edge="1" parent="1" source="Ed32em5z93W1DroC9NEO-79" target="Ed32em5z93W1DroC9NEO-8">
          <mxGeometry relative="1" as="geometry">
            <mxPoint x="-57.5" y="400.39" as="sourcePoint" />
            <mxPoint x="102.5" y="400.39" as="targetPoint" />
          </mxGeometry>
        </mxCell>
        <mxCell id="Ed32em5z93W1DroC9NEO-96" value="" style="endArrow=none;html=1;rounded=0;entryX=1;entryY=0.5;entryDx=0;entryDy=0;exitX=0;exitY=1;exitDx=0;exitDy=0;" edge="1" parent="1" source="Ed32em5z93W1DroC9NEO-79" target="Ed32em5z93W1DroC9NEO-80">
          <mxGeometry relative="1" as="geometry">
            <mxPoint x="-378.75" y="399.62" as="sourcePoint" />
            <mxPoint x="-218.75" y="399.62" as="targetPoint" />
          </mxGeometry>
        </mxCell>
        <mxCell id="Ed32em5z93W1DroC9NEO-97" value="" style="endArrow=none;html=1;rounded=0;entryX=1;entryY=0.5;entryDx=0;entryDy=0;exitX=0.049;exitY=0.362;exitDx=0;exitDy=0;exitPerimeter=0;" edge="1" parent="1" source="Ed32em5z93W1DroC9NEO-79" target="Ed32em5z93W1DroC9NEO-77">
          <mxGeometry relative="1" as="geometry">
            <mxPoint x="-378.75" y="399.62" as="sourcePoint" />
            <mxPoint x="-218.75" y="399.62" as="targetPoint" />
          </mxGeometry>
        </mxCell>
        <mxCell id="Ed32em5z93W1DroC9NEO-98" value="Origin" style="shape=rhombus;perimeter=rhombusPerimeter;whiteSpace=wrap;html=1;align=center;" vertex="1" parent="1">
          <mxGeometry x="410" y="150" width="80" height="60" as="geometry" />
        </mxCell>
        <mxCell id="Ed32em5z93W1DroC9NEO-99" value="Destination" style="shape=rhombus;perimeter=rhombusPerimeter;whiteSpace=wrap;html=1;align=center;" vertex="1" parent="1">
          <mxGeometry x="400" y="65" width="100" height="50" as="geometry" />
        </mxCell>
        <mxCell id="Ed32em5z93W1DroC9NEO-100" value="" style="endArrow=none;html=1;rounded=0;exitX=0;exitY=0.5;exitDx=0;exitDy=0;entryX=1;entryY=0.5;entryDx=0;entryDy=0;" edge="1" parent="1" source="Ed32em5z93W1DroC9NEO-98" target="Ed32em5z93W1DroC9NEO-9">
          <mxGeometry relative="1" as="geometry">
            <mxPoint x="767.5" y="265" as="sourcePoint" />
            <mxPoint x="927.5" y="265" as="targetPoint" />
          </mxGeometry>
        </mxCell>
        <mxCell id="Ed32em5z93W1DroC9NEO-101" value="1" style="resizable=0;html=1;whiteSpace=wrap;align=right;verticalAlign=bottom;" connectable="0" vertex="1" parent="Ed32em5z93W1DroC9NEO-100">
          <mxGeometry x="1" relative="1" as="geometry">
            <mxPoint x="268" y="-40" as="offset" />
          </mxGeometry>
        </mxCell>
        <mxCell id="Ed32em5z93W1DroC9NEO-102" value="" style="endArrow=none;html=1;rounded=0;exitX=1;exitY=0.5;exitDx=0;exitDy=0;entryX=0;entryY=0.5;entryDx=0;entryDy=0;" edge="1" parent="1" source="Ed32em5z93W1DroC9NEO-98" target="Ed32em5z93W1DroC9NEO-1">
          <mxGeometry relative="1" as="geometry">
            <mxPoint x="360" y="260" as="sourcePoint" />
            <mxPoint x="520" y="260" as="targetPoint" />
          </mxGeometry>
        </mxCell>
        <mxCell id="Ed32em5z93W1DroC9NEO-103" value="N" style="resizable=0;html=1;whiteSpace=wrap;align=right;verticalAlign=bottom;" connectable="0" vertex="1" parent="Ed32em5z93W1DroC9NEO-102">
          <mxGeometry x="1" relative="1" as="geometry">
            <mxPoint x="-282" y="-30" as="offset" />
          </mxGeometry>
        </mxCell>
        <mxCell id="Ed32em5z93W1DroC9NEO-104" value="" style="endArrow=none;html=1;rounded=0;exitX=0;exitY=0.5;exitDx=0;exitDy=0;entryX=1;entryY=0.5;entryDx=0;entryDy=0;" edge="1" parent="1" source="Ed32em5z93W1DroC9NEO-1" target="Ed32em5z93W1DroC9NEO-99">
          <mxGeometry relative="1" as="geometry">
            <mxPoint x="767.5" y="265" as="sourcePoint" />
            <mxPoint x="927.5" y="265" as="targetPoint" />
          </mxGeometry>
        </mxCell>
        <mxCell id="Ed32em5z93W1DroC9NEO-105" value="1" style="resizable=0;html=1;whiteSpace=wrap;align=right;verticalAlign=bottom;" connectable="0" vertex="1" parent="Ed32em5z93W1DroC9NEO-104">
          <mxGeometry x="1" relative="1" as="geometry">
            <mxPoint x="80" y="90" as="offset" />
          </mxGeometry>
        </mxCell>
        <mxCell id="Ed32em5z93W1DroC9NEO-106" value="" style="endArrow=none;html=1;rounded=0;entryX=1;entryY=0.5;entryDx=0;entryDy=0;exitX=0;exitY=0.5;exitDx=0;exitDy=0;" edge="1" parent="1" source="Ed32em5z93W1DroC9NEO-99" target="Ed32em5z93W1DroC9NEO-9">
          <mxGeometry relative="1" as="geometry">
            <mxPoint x="360" y="260" as="sourcePoint" />
            <mxPoint x="520" y="260" as="targetPoint" />
          </mxGeometry>
        </mxCell>
        <mxCell id="Ed32em5z93W1DroC9NEO-107" value="N" style="resizable=0;html=1;whiteSpace=wrap;align=right;verticalAlign=bottom;" connectable="0" vertex="1" parent="Ed32em5z93W1DroC9NEO-106">
          <mxGeometry x="1" relative="1" as="geometry">
            <mxPoint x="58" y="50" as="offset" />
          </mxGeometry>
        </mxCell>
        <mxCell id="Ed32em5z93W1DroC9NEO-114" value="Book" style="shape=rhombus;perimeter=rhombusPerimeter;whiteSpace=wrap;html=1;align=center;" vertex="1" parent="1">
          <mxGeometry x="340" y="355.39" width="80" height="40" as="geometry" />
        </mxCell>
        <mxCell id="Ed32em5z93W1DroC9NEO-115" value="Cancel" style="shape=rhombus;perimeter=rhombusPerimeter;whiteSpace=wrap;html=1;align=center;" vertex="1" parent="1">
          <mxGeometry x="340" y="435.39" width="80" height="50" as="geometry" />
        </mxCell>
        <mxCell id="Ed32em5z93W1DroC9NEO-116" value="" style="endArrow=none;html=1;rounded=0;entryX=1;entryY=0.5;entryDx=0;entryDy=0;exitX=0;exitY=0.5;exitDx=0;exitDy=0;" edge="1" parent="1" source="Ed32em5z93W1DroC9NEO-7" target="Ed32em5z93W1DroC9NEO-114">
          <mxGeometry relative="1" as="geometry">
            <mxPoint x="711.35" y="440.39" as="sourcePoint" />
            <mxPoint x="771.35" y="365.39" as="targetPoint" />
            <Array as="points" />
          </mxGeometry>
        </mxCell>
        <mxCell id="Ed32em5z93W1DroC9NEO-117" value="N" style="resizable=0;html=1;whiteSpace=wrap;align=right;verticalAlign=bottom;" connectable="0" vertex="1" parent="Ed32em5z93W1DroC9NEO-116">
          <mxGeometry x="1" relative="1" as="geometry">
            <mxPoint x="60" y="5" as="offset" />
          </mxGeometry>
        </mxCell>
        <mxCell id="Ed32em5z93W1DroC9NEO-118" value="" style="endArrow=none;html=1;rounded=0;entryX=1;entryY=0.5;entryDx=0;entryDy=0;exitX=0;exitY=0.5;exitDx=0;exitDy=0;" edge="1" parent="1" source="Ed32em5z93W1DroC9NEO-114" target="Ed32em5z93W1DroC9NEO-8">
          <mxGeometry relative="1" as="geometry">
            <mxPoint x="-27.5" y="385.39" as="sourcePoint" />
            <mxPoint x="-7.5" y="460.39" as="targetPoint" />
          </mxGeometry>
        </mxCell>
        <mxCell id="Ed32em5z93W1DroC9NEO-119" value="1" style="resizable=0;html=1;whiteSpace=wrap;align=right;verticalAlign=bottom;" connectable="0" vertex="1" parent="Ed32em5z93W1DroC9NEO-118">
          <mxGeometry x="1" relative="1" as="geometry">
            <mxPoint x="93" y="-20" as="offset" />
          </mxGeometry>
        </mxCell>
        <mxCell id="Ed32em5z93W1DroC9NEO-124" value="" style="endArrow=none;html=1;rounded=0;entryX=0;entryY=0.5;entryDx=0;entryDy=0;exitX=1;exitY=0.5;exitDx=0;exitDy=0;" edge="1" parent="1" source="Ed32em5z93W1DroC9NEO-8" target="Ed32em5z93W1DroC9NEO-115">
          <mxGeometry relative="1" as="geometry">
            <mxPoint x="250" y="415.39" as="sourcePoint" />
            <mxPoint x="-7.5" y="450.39" as="targetPoint" />
          </mxGeometry>
        </mxCell>
        <mxCell id="Ed32em5z93W1DroC9NEO-125" value="1" style="resizable=0;html=1;whiteSpace=wrap;align=right;verticalAlign=bottom;" connectable="0" vertex="1" parent="Ed32em5z93W1DroC9NEO-124">
          <mxGeometry x="1" relative="1" as="geometry">
            <mxPoint x="-80" as="offset" />
          </mxGeometry>
        </mxCell>
        <mxCell id="Ed32em5z93W1DroC9NEO-126" value="" style="endArrow=none;html=1;rounded=0;entryX=1;entryY=0.5;entryDx=0;entryDy=0;exitX=0;exitY=0.5;exitDx=0;exitDy=0;" edge="1" parent="1" source="Ed32em5z93W1DroC9NEO-7" target="Ed32em5z93W1DroC9NEO-115">
          <mxGeometry relative="1" as="geometry">
            <mxPoint x="560" y="405.39" as="sourcePoint" />
            <mxPoint x="771.35" y="435.39" as="targetPoint" />
          </mxGeometry>
        </mxCell>
        <mxCell id="Ed32em5z93W1DroC9NEO-127" value="N" style="resizable=0;html=1;whiteSpace=wrap;align=right;verticalAlign=bottom;" connectable="0" vertex="1" parent="Ed32em5z93W1DroC9NEO-126">
          <mxGeometry x="1" relative="1" as="geometry">
            <mxPoint x="70" y="-5" as="offset" />
          </mxGeometry>
        </mxCell>
        <mxCell id="Ed32em5z93W1DroC9NEO-133" style="edgeStyle=orthogonalEdgeStyle;rounded=0;orthogonalLoop=1;jettySize=auto;html=1;exitX=0.5;exitY=1;exitDx=0;exitDy=0;" edge="1" parent="1" source="Ed32em5z93W1DroC9NEO-80" target="Ed32em5z93W1DroC9NEO-80">
          <mxGeometry relative="1" as="geometry" />
        </mxCell>
        <mxCell id="Ed32em5z93W1DroC9NEO-134" value="Carries" style="shape=rhombus;perimeter=rhombusPerimeter;whiteSpace=wrap;html=1;align=center;" vertex="1" parent="1">
          <mxGeometry x="97.03" y="265.39" width="90" height="50" as="geometry" />
        </mxCell>
        <mxCell id="Ed32em5z93W1DroC9NEO-135" value="" style="endArrow=none;html=1;rounded=0;exitX=0.5;exitY=1;exitDx=0;exitDy=0;entryX=0.5;entryY=0;entryDx=0;entryDy=0;" edge="1" parent="1" source="Ed32em5z93W1DroC9NEO-9" target="Ed32em5z93W1DroC9NEO-134">
          <mxGeometry relative="1" as="geometry">
            <mxPoint x="230" y="330" as="sourcePoint" />
            <mxPoint x="390" y="330" as="targetPoint" />
          </mxGeometry>
        </mxCell>
        <mxCell id="Ed32em5z93W1DroC9NEO-136" value="1" style="resizable=0;html=1;whiteSpace=wrap;align=right;verticalAlign=bottom;" connectable="0" vertex="1" parent="Ed32em5z93W1DroC9NEO-135">
          <mxGeometry x="1" relative="1" as="geometry">
            <mxPoint y="-20" as="offset" />
          </mxGeometry>
        </mxCell>
        <mxCell id="Ed32em5z93W1DroC9NEO-137" value="" style="endArrow=none;html=1;rounded=0;exitX=0.5;exitY=1;exitDx=0;exitDy=0;entryX=0.5;entryY=0;entryDx=0;entryDy=0;" edge="1" parent="1" source="Ed32em5z93W1DroC9NEO-134" target="Ed32em5z93W1DroC9NEO-8">
          <mxGeometry relative="1" as="geometry">
            <mxPoint x="150" y="355.39" as="sourcePoint" />
            <mxPoint x="310" y="355.39" as="targetPoint" />
          </mxGeometry>
        </mxCell>
        <mxCell id="Ed32em5z93W1DroC9NEO-138" value="N" style="resizable=0;html=1;whiteSpace=wrap;align=right;verticalAlign=bottom;" connectable="0" vertex="1" parent="Ed32em5z93W1DroC9NEO-137">
          <mxGeometry x="1" relative="1" as="geometry">
            <mxPoint y="-30" as="offset" />
          </mxGeometry>
        </mxCell>
        <mxCell id="Ed32em5z93W1DroC9NEO-147" value="model name" style="ellipse;whiteSpace=wrap;html=1;align=center;" vertex="1" parent="1">
          <mxGeometry x="-380" y="125" width="80" height="45" as="geometry" />
        </mxCell>
        <mxCell id="Ed32em5z93W1DroC9NEO-148" value="" style="endArrow=none;html=1;rounded=0;exitX=1;exitY=0.5;exitDx=0;exitDy=0;entryX=0.019;entryY=0.648;entryDx=0;entryDy=0;entryPerimeter=0;" edge="1" parent="1" source="Ed32em5z93W1DroC9NEO-147" target="a5-EkgxuctrAGVljtogm-1">
          <mxGeometry relative="1" as="geometry">
            <mxPoint x="-10" y="84.38" as="sourcePoint" />
            <mxPoint x="-195" y="155" as="targetPoint" />
          </mxGeometry>
        </mxCell>
        <mxCell id="Ed32em5z93W1DroC9NEO-149" value="Screen" style="ellipse;whiteSpace=wrap;html=1;align=center;" vertex="1" parent="1">
          <mxGeometry x="-290" y="245" width="70" height="45" as="geometry" />
        </mxCell>
        <mxCell id="Ed32em5z93W1DroC9NEO-150" value="Wifi" style="ellipse;whiteSpace=wrap;html=1;align=center;" vertex="1" parent="1">
          <mxGeometry x="-190" y="260" width="75" height="45" as="geometry" />
        </mxCell>
        <mxCell id="Ed32em5z93W1DroC9NEO-151" value="" style="endArrow=none;html=1;rounded=0;exitX=1;exitY=0;exitDx=0;exitDy=0;entryX=0.25;entryY=1;entryDx=0;entryDy=0;" edge="1" parent="1" source="Ed32em5z93W1DroC9NEO-149" target="a5-EkgxuctrAGVljtogm-1">
          <mxGeometry relative="1" as="geometry">
            <mxPoint x="280" y="60" as="sourcePoint" />
            <mxPoint x="-165" y="185" as="targetPoint" />
          </mxGeometry>
        </mxCell>
        <mxCell id="Ed32em5z93W1DroC9NEO-153" value="" style="endArrow=none;html=1;rounded=0;exitX=0.5;exitY=0;exitDx=0;exitDy=0;entryX=0.5;entryY=1;entryDx=0;entryDy=0;" edge="1" parent="1" source="Ed32em5z93W1DroC9NEO-150" target="a5-EkgxuctrAGVljtogm-1">
          <mxGeometry relative="1" as="geometry">
            <mxPoint x="280" y="60" as="sourcePoint" />
            <mxPoint x="-130" y="190" as="targetPoint" />
          </mxGeometry>
        </mxCell>
        <mxCell id="a5-EkgxuctrAGVljtogm-1" value="Aircraft" style="shape=ext;margin=3;double=1;whiteSpace=wrap;html=1;align=center;" vertex="1" parent="1">
          <mxGeometry x="-200" y="115" width="130" height="70" as="geometry" />
        </mxCell>
      </root>
    </mxGraphModel>
  </diagram>
  <diagram id="XXDUhg0r5gsSnikIM7OF" name="ER-diagram_V2">
    <mxGraphModel dx="1995" dy="628" grid="1" gridSize="10" guides="1" tooltips="1" connect="1" arrows="1" fold="1" page="1" pageScale="1" pageWidth="850" pageHeight="1100" math="0" shadow="0">
      <root>
        <mxCell id="0" />
        <mxCell id="1" parent="0" />
        <mxCell id="b2223zaOqNi2kYBtWq65-1" value="Airport" style="rounded=0;whiteSpace=wrap;html=1;" vertex="1" parent="1">
          <mxGeometry x="412.5" y="205" width="120" height="60" as="geometry" />
        </mxCell>
        <mxCell id="b2223zaOqNi2kYBtWq65-3" value="Passengers" style="whiteSpace=wrap;html=1;" vertex="1" parent="1">
          <mxGeometry x="-50" y="600.04" width="120" height="60" as="geometry" />
        </mxCell>
        <mxCell id="b2223zaOqNi2kYBtWq65-4" value="Flights" style="whiteSpace=wrap;html=1;" vertex="1" parent="1">
          <mxGeometry x="-47.96999999999997" y="205" width="120" height="60" as="geometry" />
        </mxCell>
        <mxCell id="b2223zaOqNi2kYBtWq65-5" value="airport_name" style="ellipse;whiteSpace=wrap;html=1;align=center;" vertex="1" parent="1">
          <mxGeometry x="450" y="130" width="80" height="40" as="geometry" />
        </mxCell>
        <mxCell id="b2223zaOqNi2kYBtWq65-6" value="AID" style="ellipse;whiteSpace=wrap;html=1;align=center;fontStyle=4;" vertex="1" parent="1">
          <mxGeometry x="380" y="135" width="60" height="30" as="geometry" />
        </mxCell>
        <mxCell id="b2223zaOqNi2kYBtWq65-7" value="country" style="ellipse;whiteSpace=wrap;html=1;align=center;" vertex="1" parent="1">
          <mxGeometry x="300" y="135" width="60" height="30" as="geometry" />
        </mxCell>
        <mxCell id="b2223zaOqNi2kYBtWq65-8" value="city" style="ellipse;whiteSpace=wrap;html=1;align=center;" vertex="1" parent="1">
          <mxGeometry x="545" y="140" width="60" height="20" as="geometry" />
        </mxCell>
        <mxCell id="b2223zaOqNi2kYBtWq65-9" value="" style="endArrow=none;html=1;rounded=0;entryX=0;entryY=0;entryDx=0;entryDy=0;exitX=1;exitY=1;exitDx=0;exitDy=0;" edge="1" parent="1" source="b2223zaOqNi2kYBtWq65-7" target="b2223zaOqNi2kYBtWq65-1">
          <mxGeometry relative="1" as="geometry">
            <mxPoint x="305" y="205" as="sourcePoint" />
            <mxPoint x="465" y="205" as="targetPoint" />
          </mxGeometry>
        </mxCell>
        <mxCell id="b2223zaOqNi2kYBtWq65-10" value="" style="endArrow=none;html=1;rounded=0;entryX=0.25;entryY=0;entryDx=0;entryDy=0;exitX=0.5;exitY=1;exitDx=0;exitDy=0;" edge="1" parent="1" source="b2223zaOqNi2kYBtWq65-6" target="b2223zaOqNi2kYBtWq65-1">
          <mxGeometry relative="1" as="geometry">
            <mxPoint x="351" y="170" as="sourcePoint" />
            <mxPoint x="410" y="189" as="targetPoint" />
          </mxGeometry>
        </mxCell>
        <mxCell id="b2223zaOqNi2kYBtWq65-11" value="" style="endArrow=none;html=1;rounded=0;entryX=0.5;entryY=0;entryDx=0;entryDy=0;exitX=0.5;exitY=1;exitDx=0;exitDy=0;" edge="1" parent="1" source="b2223zaOqNi2kYBtWq65-5" target="b2223zaOqNi2kYBtWq65-1">
          <mxGeometry relative="1" as="geometry">
            <mxPoint x="460" y="185" as="sourcePoint" />
            <mxPoint x="500" y="194" as="targetPoint" />
          </mxGeometry>
        </mxCell>
        <mxCell id="b2223zaOqNi2kYBtWq65-12" value="" style="endArrow=none;html=1;rounded=0;entryX=0.954;entryY=0.005;entryDx=0;entryDy=0;entryPerimeter=0;exitX=0.5;exitY=1;exitDx=0;exitDy=0;" edge="1" parent="1" source="b2223zaOqNi2kYBtWq65-8" target="b2223zaOqNi2kYBtWq65-1">
          <mxGeometry relative="1" as="geometry">
            <mxPoint x="550" y="165" as="sourcePoint" />
            <mxPoint x="710" y="165" as="targetPoint" />
          </mxGeometry>
        </mxCell>
        <mxCell id="b2223zaOqNi2kYBtWq65-13" value="status" style="ellipse;whiteSpace=wrap;html=1;align=center;" vertex="1" parent="1">
          <mxGeometry x="-50" y="100" width="60" height="40" as="geometry" />
        </mxCell>
        <mxCell id="b2223zaOqNi2kYBtWq65-14" value="arrival_time" style="ellipse;whiteSpace=wrap;html=1;align=center;" vertex="1" parent="1">
          <mxGeometry x="-202.5" y="140" width="70" height="40" as="geometry" />
        </mxCell>
        <mxCell id="b2223zaOqNi2kYBtWq65-15" value="flight_date" style="ellipse;whiteSpace=wrap;html=1;align=center;" vertex="1" parent="1">
          <mxGeometry x="20" y="100" width="70" height="40" as="geometry" />
        </mxCell>
        <mxCell id="b2223zaOqNi2kYBtWq65-16" value="departure_time" style="ellipse;whiteSpace=wrap;html=1;align=center;" vertex="1" parent="1">
          <mxGeometry x="120" y="125" width="90" height="55" as="geometry" />
        </mxCell>
        <mxCell id="b2223zaOqNi2kYBtWq65-17" value="FID" style="ellipse;whiteSpace=wrap;html=1;align=center;fontStyle=4;" vertex="1" parent="1">
          <mxGeometry x="-119.99999999999997" y="112.5" width="60" height="45" as="geometry" />
        </mxCell>
        <mxCell id="b2223zaOqNi2kYBtWq65-18" value="" style="endArrow=none;html=1;rounded=0;exitX=0.5;exitY=1;exitDx=0;exitDy=0;entryX=0;entryY=0;entryDx=0;entryDy=0;" edge="1" parent="1" source="b2223zaOqNi2kYBtWq65-17" target="b2223zaOqNi2kYBtWq65-4">
          <mxGeometry relative="1" as="geometry">
            <mxPoint x="-340" y="315" as="sourcePoint" />
            <mxPoint x="-179.99999999999997" y="315" as="targetPoint" />
            <Array as="points" />
          </mxGeometry>
        </mxCell>
        <mxCell id="b2223zaOqNi2kYBtWq65-19" value="" style="endArrow=none;html=1;rounded=0;exitX=0.41;exitY=1.062;exitDx=0;exitDy=0;entryX=0.5;entryY=0;entryDx=0;entryDy=0;exitPerimeter=0;" edge="1" parent="1" source="b2223zaOqNi2kYBtWq65-15" target="b2223zaOqNi2kYBtWq65-4">
          <mxGeometry relative="1" as="geometry">
            <mxPoint x="-69.99999999999997" y="175" as="sourcePoint" />
            <mxPoint x="-49.99999999999997" y="195" as="targetPoint" />
            <Array as="points" />
          </mxGeometry>
        </mxCell>
        <mxCell id="b2223zaOqNi2kYBtWq65-20" value="" style="endArrow=none;html=1;rounded=0;exitX=0;exitY=1;exitDx=0;exitDy=0;entryX=1;entryY=0;entryDx=0;entryDy=0;" edge="1" parent="1" source="b2223zaOqNi2kYBtWq65-16" target="b2223zaOqNi2kYBtWq65-4">
          <mxGeometry relative="1" as="geometry">
            <mxPoint x="13.000000000000028" y="167" as="sourcePoint" />
            <mxPoint x="10.000000000000028" y="195" as="targetPoint" />
            <Array as="points" />
          </mxGeometry>
        </mxCell>
        <mxCell id="b2223zaOqNi2kYBtWq65-21" value="" style="endArrow=none;html=1;rounded=0;exitX=1;exitY=1;exitDx=0;exitDy=0;entryX=0;entryY=0.25;entryDx=0;entryDy=0;" edge="1" parent="1" source="b2223zaOqNi2kYBtWq65-14" target="b2223zaOqNi2kYBtWq65-4">
          <mxGeometry relative="1" as="geometry">
            <mxPoint x="23.00000000000003" y="177" as="sourcePoint" />
            <mxPoint x="20.00000000000003" y="205" as="targetPoint" />
            <Array as="points" />
          </mxGeometry>
        </mxCell>
        <mxCell id="b2223zaOqNi2kYBtWq65-22" value="" style="endArrow=none;html=1;rounded=0;entryX=0.5;entryY=1;entryDx=0;entryDy=0;exitX=0.25;exitY=0;exitDx=0;exitDy=0;" edge="1" parent="1" source="b2223zaOqNi2kYBtWq65-4" target="b2223zaOqNi2kYBtWq65-13">
          <mxGeometry relative="1" as="geometry">
            <mxPoint x="72" y="265" as="sourcePoint" />
            <mxPoint x="30.00000000000003" y="215" as="targetPoint" />
            <Array as="points" />
          </mxGeometry>
        </mxCell>
        <mxCell id="b2223zaOqNi2kYBtWq65-23" value="ArID" style="ellipse;whiteSpace=wrap;html=1;align=center;fontStyle=4;" vertex="1" parent="1">
          <mxGeometry x="-540" y="112.5" width="60" height="40" as="geometry" />
        </mxCell>
        <mxCell id="b2223zaOqNi2kYBtWq65-24" value="first_class_capacity" style="ellipse;whiteSpace=wrap;html=1;align=center;" vertex="1" parent="1">
          <mxGeometry x="-650" y="285" width="120" height="60" as="geometry" />
        </mxCell>
        <mxCell id="b2223zaOqNi2kYBtWq65-25" value="" style="endArrow=none;html=1;rounded=0;exitX=1;exitY=0;exitDx=0;exitDy=0;entryX=0;entryY=1;entryDx=0;entryDy=0;" edge="1" parent="1" source="b2223zaOqNi2kYBtWq65-24" target="b2223zaOqNi2kYBtWq65-116">
          <mxGeometry relative="1" as="geometry">
            <mxPoint x="-350" y="275" as="sourcePoint" />
            <mxPoint x="-470" y="260" as="targetPoint" />
          </mxGeometry>
        </mxCell>
        <mxCell id="b2223zaOqNi2kYBtWq65-26" value="" style="endArrow=none;html=1;rounded=0;exitX=1;exitY=1;exitDx=0;exitDy=0;entryX=0;entryY=0;entryDx=0;entryDy=0;" edge="1" parent="1" source="b2223zaOqNi2kYBtWq65-23" target="b2223zaOqNi2kYBtWq65-116">
          <mxGeometry relative="1" as="geometry">
            <mxPoint x="-570" y="215" as="sourcePoint" />
            <mxPoint x="-470" y="207.5" as="targetPoint" />
          </mxGeometry>
        </mxCell>
        <mxCell id="b2223zaOqNi2kYBtWq65-28" value="status" style="ellipse;whiteSpace=wrap;html=1;align=center;" vertex="1" parent="1">
          <mxGeometry x="-112.97" y="359.78" width="65" height="40" as="geometry" />
        </mxCell>
        <mxCell id="b2223zaOqNi2kYBtWq65-29" value="price" style="ellipse;whiteSpace=wrap;html=1;align=center;" vertex="1" parent="1">
          <mxGeometry x="-114.99999999999989" y="450" width="65" height="40" as="geometry" />
        </mxCell>
        <mxCell id="b2223zaOqNi2kYBtWq65-30" value="seat_number" style="ellipse;whiteSpace=wrap;html=1;align=center;" vertex="1" parent="1">
          <mxGeometry x="60" y="450" width="87.97" height="45" as="geometry" />
        </mxCell>
        <mxCell id="b2223zaOqNi2kYBtWq65-31" value="fare_class" style="ellipse;whiteSpace=wrap;html=1;align=center;" vertex="1" parent="1">
          <mxGeometry x="70.00000000000006" y="359.78" width="65" height="40" as="geometry" />
        </mxCell>
        <mxCell id="b2223zaOqNi2kYBtWq65-32" value="" style="endArrow=none;html=1;rounded=0;exitX=0;exitY=0;exitDx=0;exitDy=0;entryX=1;entryY=1;entryDx=0;entryDy=0;" edge="1" parent="1" source="b2223zaOqNi2kYBtWq65-67" target="b2223zaOqNi2kYBtWq65-28">
          <mxGeometry relative="1" as="geometry">
            <mxPoint x="503.6600000000001" y="470.16999999999996" as="sourcePoint" />
            <mxPoint x="663.6600000000001" y="470.16999999999996" as="targetPoint" />
          </mxGeometry>
        </mxCell>
        <mxCell id="b2223zaOqNi2kYBtWq65-34" value="" style="endArrow=none;html=1;rounded=0;exitX=0;exitY=1;exitDx=0;exitDy=0;entryX=1;entryY=0.5;entryDx=0;entryDy=0;" edge="1" parent="1" source="b2223zaOqNi2kYBtWq65-67" target="b2223zaOqNi2kYBtWq65-29">
          <mxGeometry relative="1" as="geometry">
            <mxPoint x="443.6600000000001" y="540.17" as="sourcePoint" />
            <mxPoint x="404.6600000000001" y="579.17" as="targetPoint" />
            <Array as="points" />
          </mxGeometry>
        </mxCell>
        <mxCell id="b2223zaOqNi2kYBtWq65-35" value="" style="endArrow=none;html=1;rounded=0;entryX=0.032;entryY=0.286;entryDx=0;entryDy=0;entryPerimeter=0;exitX=1;exitY=1;exitDx=0;exitDy=0;" edge="1" parent="1" source="b2223zaOqNi2kYBtWq65-67" target="b2223zaOqNi2kYBtWq65-30">
          <mxGeometry relative="1" as="geometry">
            <mxPoint x="524" y="529.78" as="sourcePoint" />
            <mxPoint x="124.61787112835918" y="450.577299321051" as="targetPoint" />
          </mxGeometry>
        </mxCell>
        <mxCell id="b2223zaOqNi2kYBtWq65-36" value="" style="endArrow=none;html=1;rounded=0;entryX=0;entryY=1;entryDx=0;entryDy=0;exitX=1;exitY=0;exitDx=0;exitDy=0;" edge="1" parent="1" source="b2223zaOqNi2kYBtWq65-67" target="b2223zaOqNi2kYBtWq65-31">
          <mxGeometry relative="1" as="geometry">
            <mxPoint x="70" y="427.78" as="sourcePoint" />
            <mxPoint x="585.8578617776345" y="605.9186636110211" as="targetPoint" />
          </mxGeometry>
        </mxCell>
        <mxCell id="b2223zaOqNi2kYBtWq65-37" value="Lname" style="ellipse;whiteSpace=wrap;html=1;align=center;" vertex="1" parent="1">
          <mxGeometry x="-280" y="545.04" width="60" height="50" as="geometry" />
        </mxCell>
        <mxCell id="b2223zaOqNi2kYBtWq65-39" value="name" style="ellipse;whiteSpace=wrap;html=1;align=center;" vertex="1" parent="1">
          <mxGeometry x="-180" y="580.04" width="60" height="50" as="geometry" />
        </mxCell>
        <mxCell id="b2223zaOqNi2kYBtWq65-40" value="Fname" style="ellipse;whiteSpace=wrap;html=1;align=center;" vertex="1" parent="1">
          <mxGeometry x="-275" y="630.04" width="55" height="50" as="geometry" />
        </mxCell>
        <mxCell id="b2223zaOqNi2kYBtWq65-41" value="gender" style="ellipse;whiteSpace=wrap;html=1;align=center;" vertex="1" parent="1">
          <mxGeometry x="155" y="685.04" width="55" height="40" as="geometry" />
        </mxCell>
        <mxCell id="b2223zaOqNi2kYBtWq65-42" value="address" style="ellipse;whiteSpace=wrap;html=1;align=center;" vertex="1" parent="1">
          <mxGeometry x="170" y="605.0400000000002" width="65" height="50" as="geometry" />
        </mxCell>
        <mxCell id="b2223zaOqNi2kYBtWq65-43" value="age" style="ellipse;whiteSpace=wrap;html=1;align=center;" vertex="1" parent="1">
          <mxGeometry x="-210" y="680.04" width="60" height="40" as="geometry" />
        </mxCell>
        <mxCell id="b2223zaOqNi2kYBtWq65-44" value="&lt;u&gt;nationality&lt;/u&gt;" style="ellipse;whiteSpace=wrap;html=1;align=center;" vertex="1" parent="1">
          <mxGeometry x="-130" y="715.0400000000001" width="70" height="40" as="geometry" />
        </mxCell>
        <mxCell id="b2223zaOqNi2kYBtWq65-45" value="&lt;u&gt;passport_no&lt;/u&gt;" style="ellipse;whiteSpace=wrap;html=1;align=center;" vertex="1" parent="1">
          <mxGeometry x="-40" y="715.04" width="70" height="50" as="geometry" />
        </mxCell>
        <mxCell id="b2223zaOqNi2kYBtWq65-46" value="phone_number" style="ellipse;shape=doubleEllipse;margin=3;whiteSpace=wrap;html=1;align=center;" vertex="1" parent="1">
          <mxGeometry x="50" y="710.06" width="105" height="59.96" as="geometry" />
        </mxCell>
        <mxCell id="b2223zaOqNi2kYBtWq65-48" value="" style="endArrow=none;html=1;rounded=0;exitX=0;exitY=0.5;exitDx=0;exitDy=0;entryX=1;entryY=0.5;entryDx=0;entryDy=0;" edge="1" parent="1" source="b2223zaOqNi2kYBtWq65-42" target="b2223zaOqNi2kYBtWq65-3">
          <mxGeometry relative="1" as="geometry">
            <mxPoint x="-187.5" y="615.04" as="sourcePoint" />
            <mxPoint x="-72.5" y="655.04" as="targetPoint" />
          </mxGeometry>
        </mxCell>
        <mxCell id="b2223zaOqNi2kYBtWq65-49" value="" style="endArrow=none;html=1;rounded=0;entryX=0;entryY=1;entryDx=0;entryDy=0;exitX=1;exitY=0;exitDx=0;exitDy=0;" edge="1" parent="1" source="b2223zaOqNi2kYBtWq65-43" target="b2223zaOqNi2kYBtWq65-3">
          <mxGeometry relative="1" as="geometry">
            <mxPoint x="-187.5" y="615.04" as="sourcePoint" />
            <mxPoint x="-27.5" y="615.04" as="targetPoint" />
          </mxGeometry>
        </mxCell>
        <mxCell id="b2223zaOqNi2kYBtWq65-50" value="" style="endArrow=none;html=1;rounded=0;entryX=0.25;entryY=1;entryDx=0;entryDy=0;exitX=0.5;exitY=0;exitDx=0;exitDy=0;" edge="1" parent="1" source="b2223zaOqNi2kYBtWq65-44" target="b2223zaOqNi2kYBtWq65-3">
          <mxGeometry relative="1" as="geometry">
            <mxPoint x="-187.5" y="615.04" as="sourcePoint" />
            <mxPoint x="-27.5" y="615.04" as="targetPoint" />
          </mxGeometry>
        </mxCell>
        <mxCell id="b2223zaOqNi2kYBtWq65-51" value="" style="endArrow=none;html=1;rounded=0;entryX=0.5;entryY=1;entryDx=0;entryDy=0;exitX=0.5;exitY=0;exitDx=0;exitDy=0;" edge="1" parent="1" source="b2223zaOqNi2kYBtWq65-45" target="b2223zaOqNi2kYBtWq65-3">
          <mxGeometry relative="1" as="geometry">
            <mxPoint x="-187.5" y="615.04" as="sourcePoint" />
            <mxPoint x="-27.5" y="615.04" as="targetPoint" />
          </mxGeometry>
        </mxCell>
        <mxCell id="b2223zaOqNi2kYBtWq65-52" value="" style="endArrow=none;html=1;rounded=0;entryX=0.75;entryY=1;entryDx=0;entryDy=0;exitX=0.5;exitY=0;exitDx=0;exitDy=0;" edge="1" parent="1" source="b2223zaOqNi2kYBtWq65-46" target="b2223zaOqNi2kYBtWq65-3">
          <mxGeometry relative="1" as="geometry">
            <mxPoint x="-187.5" y="615.04" as="sourcePoint" />
            <mxPoint x="-27.5" y="615.04" as="targetPoint" />
          </mxGeometry>
        </mxCell>
        <mxCell id="b2223zaOqNi2kYBtWq65-53" value="" style="endArrow=none;html=1;rounded=0;entryX=1;entryY=1;entryDx=0;entryDy=0;exitX=0;exitY=0;exitDx=0;exitDy=0;" edge="1" parent="1" source="b2223zaOqNi2kYBtWq65-41" target="b2223zaOqNi2kYBtWq65-3">
          <mxGeometry relative="1" as="geometry">
            <mxPoint x="-187.5" y="615.04" as="sourcePoint" />
            <mxPoint x="-27.5" y="615.04" as="targetPoint" />
          </mxGeometry>
        </mxCell>
        <mxCell id="b2223zaOqNi2kYBtWq65-54" value="" style="endArrow=none;html=1;rounded=0;entryX=0;entryY=0.5;entryDx=0;entryDy=0;exitX=1;exitY=0.5;exitDx=0;exitDy=0;" edge="1" parent="1" source="b2223zaOqNi2kYBtWq65-39" target="b2223zaOqNi2kYBtWq65-3">
          <mxGeometry relative="1" as="geometry">
            <mxPoint x="-187.5" y="615.04" as="sourcePoint" />
            <mxPoint x="-27.5" y="615.04" as="targetPoint" />
          </mxGeometry>
        </mxCell>
        <mxCell id="b2223zaOqNi2kYBtWq65-55" value="" style="endArrow=none;html=1;rounded=0;entryX=1;entryY=0.5;entryDx=0;entryDy=0;exitX=0;exitY=1;exitDx=0;exitDy=0;" edge="1" parent="1" source="b2223zaOqNi2kYBtWq65-39" target="b2223zaOqNi2kYBtWq65-40">
          <mxGeometry relative="1" as="geometry">
            <mxPoint x="-508.75" y="614.27" as="sourcePoint" />
            <mxPoint x="-348.75" y="614.27" as="targetPoint" />
          </mxGeometry>
        </mxCell>
        <mxCell id="b2223zaOqNi2kYBtWq65-56" value="" style="endArrow=none;html=1;rounded=0;entryX=1;entryY=0.5;entryDx=0;entryDy=0;exitX=0.049;exitY=0.362;exitDx=0;exitDy=0;exitPerimeter=0;" edge="1" parent="1" source="b2223zaOqNi2kYBtWq65-39" target="b2223zaOqNi2kYBtWq65-37">
          <mxGeometry relative="1" as="geometry">
            <mxPoint x="-508.75" y="614.27" as="sourcePoint" />
            <mxPoint x="-348.75" y="614.27" as="targetPoint" />
          </mxGeometry>
        </mxCell>
        <mxCell id="b2223zaOqNi2kYBtWq65-58" value="Origin" style="shape=rhombus;perimeter=rhombusPerimeter;whiteSpace=wrap;html=1;align=center;" vertex="1" parent="1">
          <mxGeometry x="185" y="180" width="105" height="55" as="geometry" />
        </mxCell>
        <mxCell id="b2223zaOqNi2kYBtWq65-67" value="Book" style="shape=rhombus;perimeter=rhombusPerimeter;whiteSpace=wrap;html=1;align=center;" vertex="1" parent="1">
          <mxGeometry x="-40" y="399.78" width="100" height="55" as="geometry" />
        </mxCell>
        <mxCell id="b2223zaOqNi2kYBtWq65-77" style="edgeStyle=orthogonalEdgeStyle;rounded=0;orthogonalLoop=1;jettySize=auto;html=1;exitX=0.5;exitY=1;exitDx=0;exitDy=0;" edge="1" parent="1" source="b2223zaOqNi2kYBtWq65-40" target="b2223zaOqNi2kYBtWq65-40">
          <mxGeometry relative="1" as="geometry" />
        </mxCell>
        <mxCell id="b2223zaOqNi2kYBtWq65-83" value="model_name" style="ellipse;whiteSpace=wrap;html=1;align=center;" vertex="1" parent="1">
          <mxGeometry x="-620" y="152.5" width="80" height="45" as="geometry" />
        </mxCell>
        <mxCell id="b2223zaOqNi2kYBtWq65-84" value="" style="endArrow=none;html=1;rounded=0;exitX=1;exitY=0.5;exitDx=0;exitDy=0;entryX=0;entryY=0.5;entryDx=0;entryDy=0;" edge="1" parent="1" source="b2223zaOqNi2kYBtWq65-83" target="b2223zaOqNi2kYBtWq65-116">
          <mxGeometry relative="1" as="geometry">
            <mxPoint x="-280" y="159.38" as="sourcePoint" />
            <mxPoint x="-467.5300000000002" y="235.36000000000013" as="targetPoint" />
          </mxGeometry>
        </mxCell>
        <mxCell id="b2223zaOqNi2kYBtWq65-85" value="screen" style="ellipse;whiteSpace=wrap;html=1;align=center;" vertex="1" parent="1">
          <mxGeometry x="-530" y="330" width="70" height="45" as="geometry" />
        </mxCell>
        <mxCell id="b2223zaOqNi2kYBtWq65-86" value="wifi" style="ellipse;whiteSpace=wrap;html=1;align=center;" vertex="1" parent="1">
          <mxGeometry x="-440" y="330" width="75" height="45" as="geometry" />
        </mxCell>
        <mxCell id="b2223zaOqNi2kYBtWq65-87" value="" style="endArrow=none;html=1;rounded=0;exitX=1;exitY=0;exitDx=0;exitDy=0;entryX=0.25;entryY=1;entryDx=0;entryDy=0;" edge="1" parent="1" source="b2223zaOqNi2kYBtWq65-85" target="b2223zaOqNi2kYBtWq65-116">
          <mxGeometry relative="1" as="geometry">
            <mxPoint x="10" y="135" as="sourcePoint" />
            <mxPoint x="-430" y="255" as="targetPoint" />
          </mxGeometry>
        </mxCell>
        <mxCell id="b2223zaOqNi2kYBtWq65-88" value="" style="endArrow=none;html=1;rounded=0;exitX=0.5;exitY=0;exitDx=0;exitDy=0;entryX=0.5;entryY=1;entryDx=0;entryDy=0;" edge="1" parent="1" source="b2223zaOqNi2kYBtWq65-86" target="b2223zaOqNi2kYBtWq65-116">
          <mxGeometry relative="1" as="geometry">
            <mxPoint x="10" y="135" as="sourcePoint" />
            <mxPoint x="-405" y="260" as="targetPoint" />
          </mxGeometry>
        </mxCell>
        <mxCell id="b2223zaOqNi2kYBtWq65-90" style="edgeStyle=orthogonalEdgeStyle;rounded=0;orthogonalLoop=1;jettySize=auto;html=1;exitX=0.5;exitY=1;exitDx=0;exitDy=0;" edge="1" parent="1" source="b2223zaOqNi2kYBtWq65-67" target="b2223zaOqNi2kYBtWq65-67">
          <mxGeometry relative="1" as="geometry" />
        </mxCell>
        <mxCell id="b2223zaOqNi2kYBtWq65-96" value="" style="endArrow=none;html=1;rounded=0;exitX=0.5;exitY=0;exitDx=0;exitDy=0;entryX=0.5;entryY=1;entryDx=0;entryDy=0;" edge="1" parent="1" source="b2223zaOqNi2kYBtWq65-67" target="b2223zaOqNi2kYBtWq65-4">
          <mxGeometry relative="1" as="geometry">
            <mxPoint x="20" y="435" as="sourcePoint" />
            <mxPoint x="180" y="435" as="targetPoint" />
          </mxGeometry>
        </mxCell>
        <mxCell id="b2223zaOqNi2kYBtWq65-97" value="N" style="resizable=0;html=1;whiteSpace=wrap;align=right;verticalAlign=bottom;" connectable="0" vertex="1" parent="b2223zaOqNi2kYBtWq65-96">
          <mxGeometry x="1" relative="1" as="geometry">
            <mxPoint x="-12" y="65" as="offset" />
          </mxGeometry>
        </mxCell>
        <mxCell id="b2223zaOqNi2kYBtWq65-101" value="" style="endArrow=none;html=1;rounded=0;exitX=0.5;exitY=1;exitDx=0;exitDy=0;entryX=0.5;entryY=0;entryDx=0;entryDy=0;" edge="1" parent="1" source="b2223zaOqNi2kYBtWq65-67" target="b2223zaOqNi2kYBtWq65-3">
          <mxGeometry relative="1" as="geometry">
            <mxPoint x="20" y="435" as="sourcePoint" />
            <mxPoint x="180" y="435" as="targetPoint" />
          </mxGeometry>
        </mxCell>
        <mxCell id="b2223zaOqNi2kYBtWq65-102" value="N" style="resizable=0;html=1;whiteSpace=wrap;align=right;verticalAlign=bottom;" connectable="0" vertex="1" parent="b2223zaOqNi2kYBtWq65-101">
          <mxGeometry x="1" relative="1" as="geometry">
            <mxPoint x="-10" y="-55" as="offset" />
          </mxGeometry>
        </mxCell>
        <mxCell id="b2223zaOqNi2kYBtWq65-106" value="" style="endArrow=none;html=1;rounded=0;exitX=1;exitY=0.5;exitDx=0;exitDy=0;entryX=0;entryY=0.5;entryDx=0;entryDy=0;" edge="1" parent="1" source="b2223zaOqNi2kYBtWq65-117" target="b2223zaOqNi2kYBtWq65-4">
          <mxGeometry relative="1" as="geometry">
            <mxPoint x="-160" y="245" as="sourcePoint" />
            <mxPoint x="80" y="375" as="targetPoint" />
          </mxGeometry>
        </mxCell>
        <mxCell id="b2223zaOqNi2kYBtWq65-107" value="1" style="resizable=0;html=1;whiteSpace=wrap;align=right;verticalAlign=bottom;" connectable="0" vertex="1" parent="b2223zaOqNi2kYBtWq65-106">
          <mxGeometry x="1" relative="1" as="geometry">
            <mxPoint x="-72" as="offset" />
          </mxGeometry>
        </mxCell>
        <mxCell id="b2223zaOqNi2kYBtWq65-110" value="" style="endArrow=none;html=1;rounded=0;exitX=1;exitY=0.5;exitDx=0;exitDy=0;entryX=0;entryY=0.5;entryDx=0;entryDy=0;" edge="1" parent="1" source="b2223zaOqNi2kYBtWq65-116" target="b2223zaOqNi2kYBtWq65-117">
          <mxGeometry relative="1" as="geometry">
            <mxPoint x="-380" y="255" as="sourcePoint" />
            <mxPoint x="-280" y="245" as="targetPoint" />
          </mxGeometry>
        </mxCell>
        <mxCell id="b2223zaOqNi2kYBtWq65-111" value="N" style="resizable=0;html=1;whiteSpace=wrap;align=right;verticalAlign=bottom;" connectable="0" vertex="1" parent="b2223zaOqNi2kYBtWq65-110">
          <mxGeometry x="1" relative="1" as="geometry">
            <mxPoint x="-37" as="offset" />
          </mxGeometry>
        </mxCell>
        <mxCell id="b2223zaOqNi2kYBtWq65-116" value="Aircraft" style="whiteSpace=wrap;html=1;align=center;" vertex="1" parent="1">
          <mxGeometry x="-470" y="205" width="120" height="60" as="geometry" />
        </mxCell>
        <mxCell id="b2223zaOqNi2kYBtWq65-117" value="Flies" style="shape=rhombus;perimeter=rhombusPerimeter;whiteSpace=wrap;html=1;align=center;" vertex="1" parent="1">
          <mxGeometry x="-270" y="205" width="120" height="60" as="geometry" />
        </mxCell>
        <mxCell id="vnUN6NfqjkLT95MUsFVZ-1" value="economy_class_capacity" style="ellipse;whiteSpace=wrap;html=1;align=center;" vertex="1" parent="1">
          <mxGeometry x="-720" y="215" width="150" height="55" as="geometry" />
        </mxCell>
        <mxCell id="vnUN6NfqjkLT95MUsFVZ-2" value="" style="endArrow=none;html=1;rounded=0;exitX=1;exitY=0.5;exitDx=0;exitDy=0;entryX=0;entryY=0.75;entryDx=0;entryDy=0;" edge="1" parent="1" source="vnUN6NfqjkLT95MUsFVZ-1" target="b2223zaOqNi2kYBtWq65-116">
          <mxGeometry relative="1" as="geometry">
            <mxPoint x="-120" y="455" as="sourcePoint" />
            <mxPoint x="40" y="455" as="targetPoint" />
          </mxGeometry>
        </mxCell>
        <mxCell id="vnUN6NfqjkLT95MUsFVZ-5" value="" style="endArrow=none;html=1;rounded=0;exitX=1;exitY=0.5;exitDx=0;exitDy=0;entryX=0;entryY=0.5;entryDx=0;entryDy=0;" edge="1" parent="1" source="b2223zaOqNi2kYBtWq65-4" target="b2223zaOqNi2kYBtWq65-58">
          <mxGeometry relative="1" as="geometry">
            <mxPoint x="-160" y="455" as="sourcePoint" />
            <mxPoint y="455" as="targetPoint" />
          </mxGeometry>
        </mxCell>
        <mxCell id="vnUN6NfqjkLT95MUsFVZ-6" value="N" style="resizable=0;html=1;whiteSpace=wrap;align=right;verticalAlign=bottom;" connectable="0" vertex="1" parent="vnUN6NfqjkLT95MUsFVZ-5">
          <mxGeometry x="1" relative="1" as="geometry">
            <mxPoint x="-40" as="offset" />
          </mxGeometry>
        </mxCell>
        <mxCell id="vnUN6NfqjkLT95MUsFVZ-8" value="estimated_time" style="ellipse;whiteSpace=wrap;html=1;align=center;" vertex="1" parent="1">
          <mxGeometry x="90" y="50" width="90" height="50" as="geometry" />
        </mxCell>
        <mxCell id="vnUN6NfqjkLT95MUsFVZ-10" value="" style="endArrow=none;html=1;rounded=0;exitX=0.75;exitY=0;exitDx=0;exitDy=0;entryX=0.5;entryY=1;entryDx=0;entryDy=0;" edge="1" parent="1" source="b2223zaOqNi2kYBtWq65-4" target="vnUN6NfqjkLT95MUsFVZ-8">
          <mxGeometry relative="1" as="geometry">
            <mxPoint x="-150" y="305" as="sourcePoint" />
            <mxPoint x="10" y="305" as="targetPoint" />
          </mxGeometry>
        </mxCell>
        <mxCell id="NQdyUY7oWoHfVjmba7Tq-1" value="" style="endArrow=none;html=1;rounded=0;entryX=0;entryY=0.5;entryDx=0;entryDy=0;exitX=1;exitY=0.5;exitDx=0;exitDy=0;" edge="1" parent="1" source="b2223zaOqNi2kYBtWq65-58" target="b2223zaOqNi2kYBtWq65-1">
          <mxGeometry relative="1" as="geometry">
            <mxPoint y="250" as="sourcePoint" />
            <mxPoint x="160" y="250" as="targetPoint" />
          </mxGeometry>
        </mxCell>
        <mxCell id="NQdyUY7oWoHfVjmba7Tq-2" value="1" style="resizable=0;html=1;whiteSpace=wrap;align=right;verticalAlign=bottom;" connectable="0" vertex="1" parent="NQdyUY7oWoHfVjmba7Tq-1">
          <mxGeometry x="1" relative="1" as="geometry">
            <mxPoint x="-52" y="50" as="offset" />
          </mxGeometry>
        </mxCell>
        <mxCell id="NQdyUY7oWoHfVjmba7Tq-3" value="Destination" style="shape=rhombus;perimeter=rhombusPerimeter;whiteSpace=wrap;html=1;align=center;" vertex="1" parent="1">
          <mxGeometry x="190" y="250" width="95" height="60" as="geometry" />
        </mxCell>
        <mxCell id="QAVyppkqZYYIvtkT26d0-1" value="" style="endArrow=none;html=1;rounded=0;entryX=0;entryY=0.5;entryDx=0;entryDy=0;exitX=1;exitY=0.5;exitDx=0;exitDy=0;" edge="1" parent="1" source="b2223zaOqNi2kYBtWq65-4" target="NQdyUY7oWoHfVjmba7Tq-3">
          <mxGeometry relative="1" as="geometry">
            <mxPoint y="280" as="sourcePoint" />
            <mxPoint x="160" y="280" as="targetPoint" />
          </mxGeometry>
        </mxCell>
        <mxCell id="QAVyppkqZYYIvtkT26d0-2" value="N" style="resizable=0;html=1;whiteSpace=wrap;align=right;verticalAlign=bottom;" connectable="0" vertex="1" parent="QAVyppkqZYYIvtkT26d0-1">
          <mxGeometry x="1" relative="1" as="geometry">
            <mxPoint x="-45" as="offset" />
          </mxGeometry>
        </mxCell>
        <mxCell id="QAVyppkqZYYIvtkT26d0-3" value="" style="endArrow=none;html=1;rounded=0;entryX=0;entryY=0.5;entryDx=0;entryDy=0;exitX=1;exitY=0.5;exitDx=0;exitDy=0;" edge="1" parent="1" source="NQdyUY7oWoHfVjmba7Tq-3" target="b2223zaOqNi2kYBtWq65-1">
          <mxGeometry relative="1" as="geometry">
            <mxPoint y="280" as="sourcePoint" />
            <mxPoint x="160" y="280" as="targetPoint" />
          </mxGeometry>
        </mxCell>
        <mxCell id="QAVyppkqZYYIvtkT26d0-4" value="1" style="resizable=0;html=1;whiteSpace=wrap;align=right;verticalAlign=bottom;" connectable="0" vertex="1" parent="QAVyppkqZYYIvtkT26d0-3">
          <mxGeometry x="1" relative="1" as="geometry">
            <mxPoint x="-53" y="-20" as="offset" />
          </mxGeometry>
        </mxCell>
        <mxCell id="Z3CzPBw_4ywsS45tL4Ca-3" value="city" style="ellipse;whiteSpace=wrap;html=1;align=center;" vertex="1" parent="1">
          <mxGeometry x="260" y="545.04" width="80" height="34.96" as="geometry" />
        </mxCell>
        <mxCell id="Z3CzPBw_4ywsS45tL4Ca-4" value="street" style="ellipse;whiteSpace=wrap;html=1;align=center;" vertex="1" parent="1">
          <mxGeometry x="285" y="595.04" width="70" height="34.96" as="geometry" />
        </mxCell>
        <mxCell id="Z3CzPBw_4ywsS45tL4Ca-5" value="house_no" style="ellipse;whiteSpace=wrap;html=1;align=center;" vertex="1" parent="1">
          <mxGeometry x="275" y="650" width="80" height="44.96" as="geometry" />
        </mxCell>
        <mxCell id="Z3CzPBw_4ywsS45tL4Ca-6" value="" style="endArrow=none;html=1;rounded=0;entryX=0;entryY=0.5;entryDx=0;entryDy=0;exitX=0.5;exitY=0;exitDx=0;exitDy=0;" edge="1" parent="1" source="b2223zaOqNi2kYBtWq65-42" target="Z3CzPBw_4ywsS45tL4Ca-3">
          <mxGeometry relative="1" as="geometry">
            <mxPoint x="-40" y="490" as="sourcePoint" />
            <mxPoint x="120" y="490" as="targetPoint" />
          </mxGeometry>
        </mxCell>
        <mxCell id="Z3CzPBw_4ywsS45tL4Ca-7" value="" style="endArrow=none;html=1;rounded=0;entryX=0;entryY=0.5;entryDx=0;entryDy=0;exitX=1;exitY=0.5;exitDx=0;exitDy=0;" edge="1" parent="1" source="b2223zaOqNi2kYBtWq65-42" target="Z3CzPBw_4ywsS45tL4Ca-4">
          <mxGeometry relative="1" as="geometry">
            <mxPoint x="-40" y="490" as="sourcePoint" />
            <mxPoint x="120" y="490" as="targetPoint" />
          </mxGeometry>
        </mxCell>
        <mxCell id="Z3CzPBw_4ywsS45tL4Ca-8" value="" style="endArrow=none;html=1;rounded=0;entryX=0;entryY=0.5;entryDx=0;entryDy=0;exitX=1;exitY=1;exitDx=0;exitDy=0;" edge="1" parent="1" source="b2223zaOqNi2kYBtWq65-42" target="Z3CzPBw_4ywsS45tL4Ca-5">
          <mxGeometry relative="1" as="geometry">
            <mxPoint x="-40" y="490" as="sourcePoint" />
            <mxPoint x="120" y="490" as="targetPoint" />
          </mxGeometry>
        </mxCell>
      </root>
    </mxGraphModel>
  </diagram>
  <diagram id="iNQd8kfftKVqM0_Lcbkq" name="Relational-shcema">
    <mxGraphModel dx="1899" dy="576" grid="1" gridSize="10" guides="1" tooltips="1" connect="1" arrows="1" fold="1" page="1" pageScale="1" pageWidth="850" pageHeight="1100" math="0" shadow="0">
      <root>
        <mxCell id="0" />
        <mxCell id="1" parent="0" />
        <mxCell id="5stHuUrjbayk9KTU00dm-1" value="Airport" style="rounded=0;whiteSpace=wrap;html=1;" vertex="1" parent="1">
          <mxGeometry x="80" y="130" width="120" height="30" as="geometry" />
        </mxCell>
        <mxCell id="5stHuUrjbayk9KTU00dm-2" value="" style="rounded=0;whiteSpace=wrap;html=1;" vertex="1" parent="1">
          <mxGeometry x="80" y="160" width="480" height="40" as="geometry" />
        </mxCell>
        <mxCell id="PCs95BX4104dzNfsbGc6-2" style="edgeStyle=orthogonalEdgeStyle;rounded=0;orthogonalLoop=1;jettySize=auto;html=1;exitX=0.5;exitY=1;exitDx=0;exitDy=0;" edge="1" parent="1" source="5stHuUrjbayk9KTU00dm-2" target="5stHuUrjbayk9KTU00dm-2">
          <mxGeometry relative="1" as="geometry" />
        </mxCell>
        <mxCell id="PCs95BX4104dzNfsbGc6-3" value="&lt;u&gt;AID&lt;/u&gt;" style="rounded=0;whiteSpace=wrap;html=1;" vertex="1" parent="1">
          <mxGeometry x="80" y="160" width="120" height="40" as="geometry" />
        </mxCell>
        <mxCell id="PCs95BX4104dzNfsbGc6-5" value="airport_name" style="rounded=0;whiteSpace=wrap;html=1;" vertex="1" parent="1">
          <mxGeometry x="200" y="160" width="120" height="40" as="geometry" />
        </mxCell>
        <mxCell id="PCs95BX4104dzNfsbGc6-6" value="country" style="rounded=0;whiteSpace=wrap;html=1;" vertex="1" parent="1">
          <mxGeometry x="320" y="160" width="120" height="40" as="geometry" />
        </mxCell>
        <mxCell id="PCs95BX4104dzNfsbGc6-8" value="city" style="rounded=0;whiteSpace=wrap;html=1;" vertex="1" parent="1">
          <mxGeometry x="440" y="160" width="120" height="40" as="geometry" />
        </mxCell>
        <mxCell id="qCQDEyr-SaX9fgjCLFwG-1" value="Flight" style="rounded=0;whiteSpace=wrap;html=1;" vertex="1" parent="1">
          <mxGeometry x="80" y="270" width="120" height="30" as="geometry" />
        </mxCell>
        <mxCell id="qCQDEyr-SaX9fgjCLFwG-2" value="" style="rounded=0;whiteSpace=wrap;html=1;" vertex="1" parent="1">
          <mxGeometry x="90" y="300" width="530" height="40" as="geometry" />
        </mxCell>
        <mxCell id="qCQDEyr-SaX9fgjCLFwG-3" style="edgeStyle=orthogonalEdgeStyle;rounded=0;orthogonalLoop=1;jettySize=auto;html=1;exitX=0.5;exitY=1;exitDx=0;exitDy=0;" edge="1" parent="1" source="qCQDEyr-SaX9fgjCLFwG-2" target="qCQDEyr-SaX9fgjCLFwG-2">
          <mxGeometry relative="1" as="geometry" />
        </mxCell>
        <mxCell id="qCQDEyr-SaX9fgjCLFwG-4" value="&lt;u&gt;FID&lt;/u&gt;" style="rounded=0;whiteSpace=wrap;html=1;" vertex="1" parent="1">
          <mxGeometry x="80" y="300" width="120" height="40" as="geometry" />
        </mxCell>
        <mxCell id="qCQDEyr-SaX9fgjCLFwG-5" value="departure_time" style="rounded=0;whiteSpace=wrap;html=1;" vertex="1" parent="1">
          <mxGeometry x="200" y="300" width="120" height="40" as="geometry" />
        </mxCell>
        <mxCell id="qCQDEyr-SaX9fgjCLFwG-6" value="arrival_time" style="rounded=0;whiteSpace=wrap;html=1;" vertex="1" parent="1">
          <mxGeometry x="320" y="300" width="120" height="40" as="geometry" />
        </mxCell>
        <mxCell id="4-mCHyxPLfWIK4kplmNw-5" value="status" style="rounded=0;whiteSpace=wrap;html=1;" vertex="1" parent="1">
          <mxGeometry x="440" y="300" width="70" height="40" as="geometry" />
        </mxCell>
        <mxCell id="4-mCHyxPLfWIK4kplmNw-6" value="Passenger" style="rounded=0;whiteSpace=wrap;html=1;" vertex="1" parent="1">
          <mxGeometry x="80" y="420" width="120" height="30" as="geometry" />
        </mxCell>
        <mxCell id="4-mCHyxPLfWIK4kplmNw-8" style="edgeStyle=orthogonalEdgeStyle;rounded=0;orthogonalLoop=1;jettySize=auto;html=1;exitX=0.5;exitY=1;exitDx=0;exitDy=0;" edge="1" parent="1">
          <mxGeometry relative="1" as="geometry">
            <mxPoint x="475" y="490" as="sourcePoint" />
            <mxPoint x="475" y="490" as="targetPoint" />
          </mxGeometry>
        </mxCell>
        <mxCell id="4-mCHyxPLfWIK4kplmNw-9" value="&lt;u&gt;nationality&lt;/u&gt;" style="rounded=0;whiteSpace=wrap;html=1;" vertex="1" parent="1">
          <mxGeometry x="80" y="450" width="120" height="40" as="geometry" />
        </mxCell>
        <mxCell id="4-mCHyxPLfWIK4kplmNw-10" value="&lt;span style=&quot;color: rgb(0, 0, 0); font-family: Helvetica; font-size: 12px; font-style: normal; font-variant-ligatures: normal; font-variant-caps: normal; font-weight: 400; letter-spacing: normal; orphans: 2; text-align: center; text-indent: 0px; text-transform: none; widows: 2; word-spacing: 0px; -webkit-text-stroke-width: 0px; white-space: normal; background-color: rgb(251, 251, 251); text-decoration-thickness: initial; text-decoration-style: initial; text-decoration-color: initial; display: inline !important; float: none;&quot;&gt;&lt;u&gt;passport_no&lt;/u&gt;&lt;/span&gt;" style="rounded=0;whiteSpace=wrap;html=1;" vertex="1" parent="1">
          <mxGeometry x="200" y="450" width="120" height="40" as="geometry" />
        </mxCell>
        <mxCell id="4-mCHyxPLfWIK4kplmNw-11" value="Fname" style="rounded=0;whiteSpace=wrap;html=1;" vertex="1" parent="1">
          <mxGeometry x="320" y="450" width="80" height="40" as="geometry" />
        </mxCell>
        <mxCell id="4-mCHyxPLfWIK4kplmNw-12" value="Lname" style="rounded=0;whiteSpace=wrap;html=1;" vertex="1" parent="1">
          <mxGeometry x="400" y="450" width="90" height="40" as="geometry" />
        </mxCell>
        <mxCell id="4-mCHyxPLfWIK4kplmNw-13" value="age" style="rounded=0;whiteSpace=wrap;html=1;" vertex="1" parent="1">
          <mxGeometry x="490" y="450" width="80" height="40" as="geometry" />
        </mxCell>
        <mxCell id="xZOTT_UACIytvMEJz36r-1" value="gender" style="rounded=0;whiteSpace=wrap;html=1;" vertex="1" parent="1">
          <mxGeometry x="570" y="450" width="90" height="40" as="geometry" />
        </mxCell>
        <mxCell id="o5ITbHIXkXLE1AXZA_v2-1" value="city" style="rounded=0;whiteSpace=wrap;html=1;" vertex="1" parent="1">
          <mxGeometry x="660" y="450" width="70" height="40" as="geometry" />
        </mxCell>
        <mxCell id="COwKn-SDXDjAllXpk6i8-1" value="Aircraft" style="rounded=0;whiteSpace=wrap;html=1;" vertex="1" parent="1">
          <mxGeometry x="80" y="570" width="120" height="30" as="geometry" />
        </mxCell>
        <mxCell id="COwKn-SDXDjAllXpk6i8-2" value="" style="rounded=0;whiteSpace=wrap;html=1;" vertex="1" parent="1">
          <mxGeometry x="80" y="600" width="800" height="40" as="geometry" />
        </mxCell>
        <mxCell id="COwKn-SDXDjAllXpk6i8-3" style="edgeStyle=orthogonalEdgeStyle;rounded=0;orthogonalLoop=1;jettySize=auto;html=1;exitX=0.5;exitY=1;exitDx=0;exitDy=0;" edge="1" parent="1" source="COwKn-SDXDjAllXpk6i8-2" target="COwKn-SDXDjAllXpk6i8-2">
          <mxGeometry relative="1" as="geometry" />
        </mxCell>
        <mxCell id="COwKn-SDXDjAllXpk6i8-4" value="&lt;u&gt;ArID&lt;/u&gt;" style="rounded=0;whiteSpace=wrap;html=1;" vertex="1" parent="1">
          <mxGeometry x="80" y="600" width="120" height="40" as="geometry" />
        </mxCell>
        <mxCell id="COwKn-SDXDjAllXpk6i8-5" value="model_name" style="rounded=0;whiteSpace=wrap;html=1;" vertex="1" parent="1">
          <mxGeometry x="200" y="600" width="120" height="40" as="geometry" />
        </mxCell>
        <mxCell id="COwKn-SDXDjAllXpk6i8-6" value="economy_class_capcity" style="rounded=0;whiteSpace=wrap;html=1;" vertex="1" parent="1">
          <mxGeometry x="320" y="600" width="170" height="40" as="geometry" />
        </mxCell>
        <mxCell id="COwKn-SDXDjAllXpk6i8-7" value="first_class_capacity" style="rounded=0;whiteSpace=wrap;html=1;" vertex="1" parent="1">
          <mxGeometry x="489" y="600" width="130" height="40" as="geometry" />
        </mxCell>
        <mxCell id="COwKn-SDXDjAllXpk6i8-8" value="screen" style="rounded=0;whiteSpace=wrap;html=1;" vertex="1" parent="1">
          <mxGeometry x="619" y="600" width="90" height="40" as="geometry" />
        </mxCell>
        <mxCell id="COwKn-SDXDjAllXpk6i8-9" value="wifi" style="rounded=0;whiteSpace=wrap;html=1;" vertex="1" parent="1">
          <mxGeometry x="709" y="600" width="90" height="40" as="geometry" />
        </mxCell>
        <mxCell id="6KXpfqIHVVpo4ne6k9n3-1" value="Phone number" style="rounded=0;whiteSpace=wrap;html=1;" vertex="1" parent="1">
          <mxGeometry x="1040" y="420" width="120" height="30" as="geometry" />
        </mxCell>
        <mxCell id="6KXpfqIHVVpo4ne6k9n3-2" value="" style="rounded=0;whiteSpace=wrap;html=1;" vertex="1" parent="1">
          <mxGeometry x="1040" y="450" width="240" height="40" as="geometry" />
        </mxCell>
        <mxCell id="6KXpfqIHVVpo4ne6k9n3-3" style="edgeStyle=orthogonalEdgeStyle;rounded=0;orthogonalLoop=1;jettySize=auto;html=1;exitX=0.5;exitY=1;exitDx=0;exitDy=0;" edge="1" parent="1" source="6KXpfqIHVVpo4ne6k9n3-2" target="6KXpfqIHVVpo4ne6k9n3-2">
          <mxGeometry relative="1" as="geometry" />
        </mxCell>
        <mxCell id="6KXpfqIHVVpo4ne6k9n3-4" value="&lt;u&gt;nationality&lt;/u&gt;" style="rounded=0;whiteSpace=wrap;html=1;" vertex="1" parent="1">
          <mxGeometry x="1040" y="450" width="120" height="40" as="geometry" />
        </mxCell>
        <mxCell id="6KXpfqIHVVpo4ne6k9n3-5" value="&lt;u&gt;passport_no&lt;/u&gt;" style="rounded=0;whiteSpace=wrap;html=1;" vertex="1" parent="1">
          <mxGeometry x="1160" y="450" width="120" height="40" as="geometry" />
        </mxCell>
        <mxCell id="3BOuv90eBdSzSmUsTBRF-1" value="FID" style="rounded=0;whiteSpace=wrap;html=1;" vertex="1" parent="1">
          <mxGeometry x="799" y="600" width="81" height="40" as="geometry" />
        </mxCell>
        <mxCell id="trPJpEtc_eAXhB23Jlqb-4" value="" style="endArrow=classic;html=1;rounded=0;exitX=0.5;exitY=1;exitDx=0;exitDy=0;entryX=0.25;entryY=1;entryDx=0;entryDy=0;" edge="1" parent="1" source="3BOuv90eBdSzSmUsTBRF-1" target="qCQDEyr-SaX9fgjCLFwG-4">
          <mxGeometry width="50" height="50" relative="1" as="geometry">
            <mxPoint x="875" y="610" as="sourcePoint" />
            <mxPoint x="190" y="360" as="targetPoint" />
            <Array as="points">
              <mxPoint x="840" y="680" />
              <mxPoint x="130" y="680" />
              <mxPoint x="30" y="680" />
              <mxPoint x="30" y="480" />
              <mxPoint x="30" y="360" />
              <mxPoint x="110" y="360" />
            </Array>
          </mxGeometry>
        </mxCell>
        <mxCell id="vZdHp5l7IHASFaFswgqt-1" value="Book" style="rounded=0;whiteSpace=wrap;html=1;" vertex="1" parent="1">
          <mxGeometry x="80" y="730" width="120" height="30" as="geometry" />
        </mxCell>
        <mxCell id="vZdHp5l7IHASFaFswgqt-2" value="" style="rounded=0;whiteSpace=wrap;html=1;" vertex="1" parent="1">
          <mxGeometry x="80" y="760" width="740" height="40" as="geometry" />
        </mxCell>
        <mxCell id="vZdHp5l7IHASFaFswgqt-3" style="edgeStyle=orthogonalEdgeStyle;rounded=0;orthogonalLoop=1;jettySize=auto;html=1;exitX=0.5;exitY=1;exitDx=0;exitDy=0;" edge="1" parent="1" source="vZdHp5l7IHASFaFswgqt-2" target="vZdHp5l7IHASFaFswgqt-2">
          <mxGeometry relative="1" as="geometry" />
        </mxCell>
        <mxCell id="vZdHp5l7IHASFaFswgqt-4" value="&lt;u&gt;PID&lt;/u&gt;" style="rounded=0;whiteSpace=wrap;html=1;" vertex="1" parent="1">
          <mxGeometry x="80" y="760" width="120" height="40" as="geometry" />
        </mxCell>
        <mxCell id="vZdHp5l7IHASFaFswgqt-5" value="&lt;u&gt;FID&lt;/u&gt;" style="rounded=0;whiteSpace=wrap;html=1;" vertex="1" parent="1">
          <mxGeometry x="200" y="760" width="120" height="40" as="geometry" />
        </mxCell>
        <mxCell id="vZdHp5l7IHASFaFswgqt-6" value="status" style="rounded=0;whiteSpace=wrap;html=1;" vertex="1" parent="1">
          <mxGeometry x="320" y="760" width="120" height="40" as="geometry" />
        </mxCell>
        <mxCell id="vZdHp5l7IHASFaFswgqt-7" value="price" style="rounded=0;whiteSpace=wrap;html=1;" vertex="1" parent="1">
          <mxGeometry x="440" y="760" width="130" height="40" as="geometry" />
        </mxCell>
        <mxCell id="vZdHp5l7IHASFaFswgqt-8" value="fare_class" style="rounded=0;whiteSpace=wrap;html=1;" vertex="1" parent="1">
          <mxGeometry x="560" y="760" width="130" height="40" as="geometry" />
        </mxCell>
        <mxCell id="vZdHp5l7IHASFaFswgqt-9" value="seat_number" style="rounded=0;whiteSpace=wrap;html=1;" vertex="1" parent="1">
          <mxGeometry x="690" y="760" width="130" height="40" as="geometry" />
        </mxCell>
        <mxCell id="jewj4nv2N4BXOj8nhQPe-2" value="" style="endArrow=classic;html=1;rounded=0;exitX=0;exitY=0.5;exitDx=0;exitDy=0;entryX=0;entryY=0.5;entryDx=0;entryDy=0;" edge="1" parent="1" source="vZdHp5l7IHASFaFswgqt-4" target="4-mCHyxPLfWIK4kplmNw-9">
          <mxGeometry width="50" height="50" relative="1" as="geometry">
            <mxPoint x="240" y="710" as="sourcePoint" />
            <mxPoint x="70" y="520" as="targetPoint" />
            <Array as="points">
              <mxPoint x="-20" y="780" />
              <mxPoint x="-20" y="470" />
            </Array>
          </mxGeometry>
        </mxCell>
        <mxCell id="jewj4nv2N4BXOj8nhQPe-3" value="" style="endArrow=classic;html=1;rounded=0;entryX=0;entryY=0.75;entryDx=0;entryDy=0;exitX=0.5;exitY=1;exitDx=0;exitDy=0;" edge="1" parent="1" source="vZdHp5l7IHASFaFswgqt-5" target="qCQDEyr-SaX9fgjCLFwG-4">
          <mxGeometry width="50" height="50" relative="1" as="geometry">
            <mxPoint x="260" y="840" as="sourcePoint" />
            <mxPoint x="80" y="280.0000000000001" as="targetPoint" />
            <Array as="points">
              <mxPoint x="260" y="840" />
              <mxPoint x="-70" y="840" />
              <mxPoint x="-70" y="330" />
            </Array>
          </mxGeometry>
        </mxCell>
        <mxCell id="jewj4nv2N4BXOj8nhQPe-5" value="" style="rounded=0;whiteSpace=wrap;html=1;" vertex="1" parent="1">
          <mxGeometry x="620" y="299.17" width="190" height="40" as="geometry" />
        </mxCell>
        <mxCell id="jewj4nv2N4BXOj8nhQPe-6" style="edgeStyle=orthogonalEdgeStyle;rounded=0;orthogonalLoop=1;jettySize=auto;html=1;exitX=0.5;exitY=1;exitDx=0;exitDy=0;" edge="1" parent="1" source="jewj4nv2N4BXOj8nhQPe-5" target="jewj4nv2N4BXOj8nhQPe-5">
          <mxGeometry relative="1" as="geometry" />
        </mxCell>
        <mxCell id="jewj4nv2N4BXOj8nhQPe-7" value="AID_origin" style="rounded=0;whiteSpace=wrap;html=1;" vertex="1" parent="1">
          <mxGeometry x="620" y="300" width="80" height="40" as="geometry" />
        </mxCell>
        <mxCell id="jewj4nv2N4BXOj8nhQPe-8" value="AID_destination" style="rounded=0;whiteSpace=wrap;html=1;" vertex="1" parent="1">
          <mxGeometry x="700" y="299.17" width="110" height="40" as="geometry" />
        </mxCell>
        <mxCell id="tOREdWYYXHd241Vcrmmp-3" value="" style="endArrow=classic;html=1;rounded=0;exitX=0.5;exitY=1;exitDx=0;exitDy=0;entryX=0.5;entryY=1;entryDx=0;entryDy=0;" edge="1" parent="1" source="6KXpfqIHVVpo4ne6k9n3-4" target="4-mCHyxPLfWIK4kplmNw-9">
          <mxGeometry width="50" height="50" relative="1" as="geometry">
            <mxPoint x="590" y="510" as="sourcePoint" />
            <mxPoint x="148" y="331" as="targetPoint" />
            <Array as="points">
              <mxPoint x="1100" y="520" />
              <mxPoint x="870" y="520" />
              <mxPoint x="510" y="520" />
              <mxPoint x="140" y="520" />
            </Array>
          </mxGeometry>
        </mxCell>
        <mxCell id="vzwlDqSGTMGbtEjT-nSB-1" value="estimated_time" style="rounded=0;whiteSpace=wrap;html=1;" vertex="1" parent="1">
          <mxGeometry x="510" y="300" width="110" height="40" as="geometry" />
        </mxCell>
        <mxCell id="vzwlDqSGTMGbtEjT-nSB-2" value="" style="endArrow=classic;html=1;rounded=0;exitX=0.5;exitY=1;exitDx=0;exitDy=0;entryX=0.25;entryY=1;entryDx=0;entryDy=0;" edge="1" parent="1" source="jewj4nv2N4BXOj8nhQPe-7" target="PCs95BX4104dzNfsbGc6-3">
          <mxGeometry width="50" height="50" relative="1" as="geometry">
            <mxPoint x="430" y="340" as="sourcePoint" />
            <mxPoint x="480" y="290" as="targetPoint" />
            <Array as="points">
              <mxPoint x="660" y="360" />
              <mxPoint x="960" y="360" />
              <mxPoint x="960" y="240" />
              <mxPoint x="110" y="240" />
            </Array>
          </mxGeometry>
        </mxCell>
        <mxCell id="vzwlDqSGTMGbtEjT-nSB-4" value="" style="endArrow=classic;html=1;rounded=0;exitX=0.5;exitY=1;exitDx=0;exitDy=0;entryX=0.75;entryY=1;entryDx=0;entryDy=0;" edge="1" parent="1" source="jewj4nv2N4BXOj8nhQPe-8" target="PCs95BX4104dzNfsbGc6-3">
          <mxGeometry width="50" height="50" relative="1" as="geometry">
            <mxPoint x="470" y="340" as="sourcePoint" />
            <mxPoint x="520" y="290" as="targetPoint" />
            <Array as="points">
              <mxPoint x="755" y="390" />
              <mxPoint x="1000" y="390" />
              <mxPoint x="1000" y="220" />
              <mxPoint x="170" y="220" />
            </Array>
          </mxGeometry>
        </mxCell>
        <mxCell id="FDoHzVRdw1ltjuKWVBld-1" value="&lt;u&gt;phone_number&lt;/u&gt;" style="rounded=0;whiteSpace=wrap;html=1;" vertex="1" parent="1">
          <mxGeometry x="1275" y="450" width="120" height="40" as="geometry" />
        </mxCell>
        <mxCell id="ix55bw30ybjlY3IRpSg0-1" value="street" style="rounded=0;whiteSpace=wrap;html=1;" vertex="1" parent="1">
          <mxGeometry x="730" y="450" width="90" height="40" as="geometry" />
        </mxCell>
        <mxCell id="ix55bw30ybjlY3IRpSg0-2" value="house_no" style="rounded=0;whiteSpace=wrap;html=1;" vertex="1" parent="1">
          <mxGeometry x="820" y="450" width="90" height="40" as="geometry" />
        </mxCell>
      </root>
    </mxGraphModel>
  </diagram>
  <diagram id="Egwwkvh5FNeh8ERwYK-d" name="Page-4">
    <mxGraphModel dx="1250" dy="691" grid="1" gridSize="10" guides="1" tooltips="1" connect="1" arrows="1" fold="1" page="1" pageScale="1" pageWidth="850" pageHeight="1100" math="0" shadow="0">
      <root>
        <mxCell id="0" />
        <mxCell id="1" parent="0" />
      </root>
    </mxGraphModel>
  </diagram>
</mxfile>
